<?xml version="1.0" encoding="UTF-8" standalone="no"?>
<svg
   xmlns:dc="http://purl.org/dc/elements/1.1/"
   xmlns:cc="http://creativecommons.org/ns#"
   xmlns:rdf="http://www.w3.org/1999/02/22-rdf-syntax-ns#"
   xmlns:svg="http://www.w3.org/2000/svg"
   xmlns="http://www.w3.org/2000/svg"
   xmlns:xlink="http://www.w3.org/1999/xlink"
   xmlns:sodipodi="http://sodipodi.sourceforge.net/DTD/sodipodi-0.dtd"
   xmlns:inkscape="http://www.inkscape.org/namespaces/inkscape"
   width="902.64062"
   viewBox="0 0 902.64062 195.265"
   height="195.265"
   version="1.0"
   id="svg176"
   sodipodi:docname="aviaocoracaoesq.svg"
   inkscape:version="1.0.2-2 (e86c870879, 2021-01-15)">
  <metadata
     id="metadata180">
    <rdf:RDF>
      <cc:Work
         rdf:about="">
        <dc:format>image/svg+xml</dc:format>
        <dc:type
           rdf:resource="http://purl.org/dc/dcmitype/StillImage" />
        <dc:title></dc:title>
      </cc:Work>
    </rdf:RDF>
  </metadata>
  <sodipodi:namedview
     pagecolor="#ffffff"
     bordercolor="#666666"
     borderopacity="1"
     objecttolerance="10"
     gridtolerance="10"
     guidetolerance="10"
     inkscape:pageopacity="0"
     inkscape:pageshadow="2"
     inkscape:window-width="1920"
     inkscape:window-height="1001"
     id="namedview178"
     showgrid="false"
     fit-margin-top="0"
     fit-margin-left="0"
     fit-margin-right="0"
     fit-margin-bottom="0"
     inkscape:zoom="0.32"
     inkscape:cx="27.38498"
     inkscape:cy="232.7871"
     inkscape:window-x="-9"
     inkscape:window-y="-9"
     inkscape:window-maximized="1"
     inkscape:current-layer="svg176"
     inkscape:document-rotation="0" />
  <defs
     id="defs8">
    <linearGradient
       inkscape:collect="always"
       id="linearGradient1092">
      <stop
         style="stop-color:#ff3eff;stop-opacity:1"
         offset="0"
         id="stop1088" />
      <stop
         style="stop-color:#7519ff;stop-opacity:1"
         offset="1"
         id="stop1090" />
    </linearGradient>
    <clipPath
       id="a">
      <path
         d="m 951,319 h 162 V 502.97266 H 951 Z m 0,0"
         id="path2" />
    </clipPath>
    <clipPath
       id="b">
      <path
         d="m 603,307.22266 h 10 V 312 h -10 z m 0,0"
         id="path5" />
    </clipPath>
    <linearGradient
       inkscape:collect="always"
       xlink:href="#linearGradient1092"
       id="linearGradient1094"
       x1="998.78906"
       y1="408.04239"
       x2="1112.3672"
       y2="404.91739"
       gradientUnits="userSpaceOnUse" />
    <linearGradient
       inkscape:collect="always"
       xlink:href="#linearGradient1092"
       id="linearGradient1096"
       gradientUnits="userSpaceOnUse"
       x1="998.78906"
       y1="408.04239"
       x2="1112.3672"
       y2="404.91739" />
    <linearGradient
       inkscape:collect="always"
       xlink:href="#linearGradient1092"
       id="linearGradient1098"
       gradientUnits="userSpaceOnUse"
       x1="998.78906"
       y1="408.04239"
       x2="1112.3672"
       y2="404.91739" />
    <linearGradient
       inkscape:collect="always"
       xlink:href="#linearGradient1092"
       id="linearGradient1100"
       gradientUnits="userSpaceOnUse"
       x1="998.78906"
       y1="408.04239"
       x2="1112.3672"
       y2="404.91739" />
    <linearGradient
       inkscape:collect="always"
       xlink:href="#linearGradient1092"
       id="linearGradient1102"
       gradientUnits="userSpaceOnUse"
       x1="998.78906"
       y1="408.04239"
       x2="1112.3672"
       y2="404.91739" />
    <linearGradient
       inkscape:collect="always"
       xlink:href="#linearGradient1092"
       id="linearGradient1104"
       gradientUnits="userSpaceOnUse"
       x1="998.78906"
       y1="408.04239"
       x2="1112.3672"
       y2="404.91739" />
    <linearGradient
       inkscape:collect="always"
       xlink:href="#linearGradient1092"
       id="linearGradient1106"
       gradientUnits="userSpaceOnUse"
       x1="998.78906"
       y1="408.04239"
       x2="1112.3672"
       y2="404.91739" />
    <linearGradient
       inkscape:collect="always"
       xlink:href="#linearGradient1092"
       id="linearGradient1108"
       gradientUnits="userSpaceOnUse"
       x1="998.78906"
       y1="408.04239"
       x2="1112.3672"
       y2="404.91739" />
    <linearGradient
       inkscape:collect="always"
       xlink:href="#linearGradient1092"
       id="linearGradient1110"
       gradientUnits="userSpaceOnUse"
       x1="998.78906"
       y1="408.04239"
       x2="1112.3672"
       y2="404.91739" />
    <linearGradient
       inkscape:collect="always"
       xlink:href="#linearGradient1092"
       id="linearGradient1112"
       gradientUnits="userSpaceOnUse"
       x1="998.78906"
       y1="408.04239"
       x2="1112.3672"
       y2="404.91739" />
    <linearGradient
       inkscape:collect="always"
       xlink:href="#linearGradient1092"
       id="linearGradient1114"
       gradientUnits="userSpaceOnUse"
       x1="998.78906"
       y1="408.04239"
       x2="1112.3672"
       y2="404.91739" />
    <linearGradient
       inkscape:collect="always"
       xlink:href="#linearGradient1092"
       id="linearGradient1116"
       gradientUnits="userSpaceOnUse"
       x1="998.78906"
       y1="408.04239"
       x2="1112.3672"
       y2="404.91739" />
    <linearGradient
       inkscape:collect="always"
       xlink:href="#linearGradient1092"
       id="linearGradient1118"
       gradientUnits="userSpaceOnUse"
       x1="998.78906"
       y1="408.04239"
       x2="1112.3672"
       y2="404.91739" />
    <linearGradient
       inkscape:collect="always"
       xlink:href="#linearGradient1092"
       id="linearGradient1120"
       gradientUnits="userSpaceOnUse"
       x1="998.78906"
       y1="408.04239"
       x2="1112.3672"
       y2="404.91739" />
    <linearGradient
       inkscape:collect="always"
       xlink:href="#linearGradient1092"
       id="linearGradient1122"
       gradientUnits="userSpaceOnUse"
       x1="998.78906"
       y1="408.04239"
       x2="1112.3672"
       y2="404.91739" />
    <linearGradient
       inkscape:collect="always"
       xlink:href="#linearGradient1092"
       id="linearGradient1124"
       gradientUnits="userSpaceOnUse"
       x1="998.78906"
       y1="408.04239"
       x2="1112.3672"
       y2="404.91739" />
    <linearGradient
       inkscape:collect="always"
       xlink:href="#linearGradient1092"
       id="linearGradient1126"
       gradientUnits="userSpaceOnUse"
       x1="998.78906"
       y1="408.04239"
       x2="1112.3672"
       y2="404.91739" />
    <linearGradient
       inkscape:collect="always"
       xlink:href="#linearGradient1092"
       id="linearGradient1128"
       gradientUnits="userSpaceOnUse"
       x1="998.78906"
       y1="408.04239"
       x2="1112.3672"
       y2="404.91739" />
    <linearGradient
       inkscape:collect="always"
       xlink:href="#linearGradient1092"
       id="linearGradient1130"
       gradientUnits="userSpaceOnUse"
       x1="998.78906"
       y1="408.04239"
       x2="1112.3672"
       y2="404.91739" />
    <linearGradient
       inkscape:collect="always"
       xlink:href="#linearGradient1092"
       id="linearGradient1132"
       gradientUnits="userSpaceOnUse"
       x1="998.78906"
       y1="408.04239"
       x2="1112.3672"
       y2="404.91739" />
    <linearGradient
       inkscape:collect="always"
       xlink:href="#linearGradient1092"
       id="linearGradient1134"
       gradientUnits="userSpaceOnUse"
       x1="998.78906"
       y1="408.04239"
       x2="1112.3672"
       y2="404.91739" />
    <linearGradient
       inkscape:collect="always"
       xlink:href="#linearGradient1092"
       id="linearGradient1136"
       gradientUnits="userSpaceOnUse"
       x1="998.78906"
       y1="408.04239"
       x2="1112.3672"
       y2="404.91739" />
    <linearGradient
       inkscape:collect="always"
       xlink:href="#linearGradient1092"
       id="linearGradient1138"
       gradientUnits="userSpaceOnUse"
       x1="998.78906"
       y1="408.04239"
       x2="1112.3672"
       y2="404.91739" />
    <linearGradient
       inkscape:collect="always"
       xlink:href="#linearGradient1092"
       id="linearGradient1140"
       gradientUnits="userSpaceOnUse"
       x1="998.78906"
       y1="408.04239"
       x2="1112.3672"
       y2="404.91739" />
    <linearGradient
       inkscape:collect="always"
       xlink:href="#linearGradient1092"
       id="linearGradient1142"
       gradientUnits="userSpaceOnUse"
       x1="998.78906"
       y1="408.04239"
       x2="1112.3672"
       y2="404.91739" />
    <linearGradient
       inkscape:collect="always"
       xlink:href="#linearGradient1092"
       id="linearGradient1144"
       gradientUnits="userSpaceOnUse"
       x1="998.78906"
       y1="408.04239"
       x2="1112.3672"
       y2="404.91739" />
    <linearGradient
       inkscape:collect="always"
       xlink:href="#linearGradient1092"
       id="linearGradient1146"
       gradientUnits="userSpaceOnUse"
       x1="998.78906"
       y1="408.04239"
       x2="1112.3672"
       y2="404.91739" />
    <linearGradient
       inkscape:collect="always"
       xlink:href="#linearGradient1092"
       id="linearGradient1148"
       gradientUnits="userSpaceOnUse"
       x1="998.78906"
       y1="408.04239"
       x2="1112.3672"
       y2="404.91739" />
    <linearGradient
       inkscape:collect="always"
       xlink:href="#linearGradient1092"
       id="linearGradient1150"
       gradientUnits="userSpaceOnUse"
       x1="998.78906"
       y1="408.04239"
       x2="1112.3672"
       y2="404.91739" />
    <linearGradient
       inkscape:collect="always"
       xlink:href="#linearGradient1092"
       id="linearGradient1152"
       gradientUnits="userSpaceOnUse"
       x1="998.78906"
       y1="408.04239"
       x2="1112.3672"
       y2="404.91739" />
    <linearGradient
       inkscape:collect="always"
       xlink:href="#linearGradient1092"
       id="linearGradient1154"
       gradientUnits="userSpaceOnUse"
       x1="998.78906"
       y1="408.04239"
       x2="1112.3672"
       y2="404.91739" />
    <linearGradient
       inkscape:collect="always"
       xlink:href="#linearGradient1092"
       id="linearGradient1156"
       gradientUnits="userSpaceOnUse"
       x1="998.78906"
       y1="408.04239"
       x2="1112.3672"
       y2="404.91739" />
    <linearGradient
       inkscape:collect="always"
       xlink:href="#linearGradient1092"
       id="linearGradient1158"
       gradientUnits="userSpaceOnUse"
       x1="998.78906"
       y1="408.04239"
       x2="1112.3672"
       y2="404.91739" />
    <linearGradient
       inkscape:collect="always"
       xlink:href="#linearGradient1092"
       id="linearGradient1160"
       gradientUnits="userSpaceOnUse"
       x1="998.78906"
       y1="408.04239"
       x2="1112.3672"
       y2="404.91739" />
    <linearGradient
       inkscape:collect="always"
       xlink:href="#linearGradient1092"
       id="linearGradient1162"
       gradientUnits="userSpaceOnUse"
       x1="998.78906"
       y1="408.04239"
       x2="1112.3672"
       y2="404.91739" />
    <linearGradient
       inkscape:collect="always"
       xlink:href="#linearGradient1092"
       id="linearGradient1164"
       gradientUnits="userSpaceOnUse"
       x1="998.78906"
       y1="408.04239"
       x2="1112.3672"
       y2="404.91739" />
    <linearGradient
       inkscape:collect="always"
       xlink:href="#linearGradient1092"
       id="linearGradient1166"
       gradientUnits="userSpaceOnUse"
       x1="998.78906"
       y1="408.04239"
       x2="1112.3672"
       y2="404.91739" />
    <linearGradient
       inkscape:collect="always"
       xlink:href="#linearGradient1092"
       id="linearGradient1168"
       gradientUnits="userSpaceOnUse"
       x1="998.78906"
       y1="408.04239"
       x2="1112.3672"
       y2="404.91739" />
    <linearGradient
       inkscape:collect="always"
       xlink:href="#linearGradient1092"
       id="linearGradient1170"
       gradientUnits="userSpaceOnUse"
       x1="998.78906"
       y1="408.04239"
       x2="1112.3672"
       y2="404.91739" />
    <linearGradient
       inkscape:collect="always"
       xlink:href="#linearGradient1092"
       id="linearGradient1172"
       gradientUnits="userSpaceOnUse"
       x1="998.78906"
       y1="408.04239"
       x2="1112.3672"
       y2="404.91739" />
    <linearGradient
       inkscape:collect="always"
       xlink:href="#linearGradient1092"
       id="linearGradient1174"
       gradientUnits="userSpaceOnUse"
       x1="998.78906"
       y1="408.04239"
       x2="1112.3672"
       y2="404.91739" />
    <linearGradient
       inkscape:collect="always"
       xlink:href="#linearGradient1092"
       id="linearGradient1176"
       gradientUnits="userSpaceOnUse"
       x1="998.78906"
       y1="408.04239"
       x2="1112.3672"
       y2="404.91739" />
    <linearGradient
       inkscape:collect="always"
       xlink:href="#linearGradient1092"
       id="linearGradient1178"
       gradientUnits="userSpaceOnUse"
       x1="998.78906"
       y1="408.04239"
       x2="1112.3672"
       y2="404.91739" />
    <linearGradient
       inkscape:collect="always"
       xlink:href="#linearGradient1092"
       id="linearGradient1180"
       gradientUnits="userSpaceOnUse"
       x1="998.78906"
       y1="408.04239"
       x2="1112.3672"
       y2="404.91739" />
    <linearGradient
       inkscape:collect="always"
       xlink:href="#linearGradient1092"
       id="linearGradient1182"
       gradientUnits="userSpaceOnUse"
       x1="998.78906"
       y1="408.04239"
       x2="1112.3672"
       y2="404.91739" />
    <linearGradient
       inkscape:collect="always"
       xlink:href="#linearGradient1092"
       id="linearGradient1184"
       gradientUnits="userSpaceOnUse"
       x1="998.78906"
       y1="408.04239"
       x2="1112.3672"
       y2="404.91739" />
    <linearGradient
       inkscape:collect="always"
       xlink:href="#linearGradient1092"
       id="linearGradient1186"
       gradientUnits="userSpaceOnUse"
       x1="998.78906"
       y1="408.04239"
       x2="1112.3672"
       y2="404.91739" />
    <linearGradient
       inkscape:collect="always"
       xlink:href="#linearGradient1092"
       id="linearGradient1188"
       gradientUnits="userSpaceOnUse"
       x1="998.78906"
       y1="408.04239"
       x2="1112.3672"
       y2="404.91739" />
    <linearGradient
       inkscape:collect="always"
       xlink:href="#linearGradient1092"
       id="linearGradient1190"
       gradientUnits="userSpaceOnUse"
       x1="998.78906"
       y1="408.04239"
       x2="1112.3672"
       y2="404.91739" />
    <linearGradient
       inkscape:collect="always"
       xlink:href="#linearGradient1092"
       id="linearGradient1192"
       gradientUnits="userSpaceOnUse"
       x1="998.78906"
       y1="408.04239"
       x2="1112.3672"
       y2="404.91739" />
    <linearGradient
       inkscape:collect="always"
       xlink:href="#linearGradient1092"
       id="linearGradient1194"
       gradientUnits="userSpaceOnUse"
       x1="998.78906"
       y1="408.04239"
       x2="1112.3672"
       y2="404.91739" />
    <linearGradient
       inkscape:collect="always"
       xlink:href="#linearGradient1092"
       id="linearGradient1196"
       gradientUnits="userSpaceOnUse"
       x1="998.78906"
       y1="408.04239"
       x2="1112.3672"
       y2="404.91739" />
    <linearGradient
       inkscape:collect="always"
       xlink:href="#linearGradient1092"
       id="linearGradient1198"
       gradientUnits="userSpaceOnUse"
       x1="998.78906"
       y1="408.04239"
       x2="1112.3672"
       y2="404.91739" />
    <linearGradient
       inkscape:collect="always"
       xlink:href="#linearGradient1092"
       id="linearGradient1200"
       gradientUnits="userSpaceOnUse"
       x1="998.78906"
       y1="408.04239"
       x2="1112.3672"
       y2="404.91739" />
    <linearGradient
       inkscape:collect="always"
       xlink:href="#linearGradient1092"
       id="linearGradient1202"
       gradientUnits="userSpaceOnUse"
       x1="998.78906"
       y1="408.04239"
       x2="1112.3672"
       y2="404.91739" />
    <linearGradient
       inkscape:collect="always"
       xlink:href="#linearGradient1092"
       id="linearGradient1204"
       gradientUnits="userSpaceOnUse"
       x1="998.78906"
       y1="408.04239"
       x2="1112.3672"
       y2="404.91739" />
    <linearGradient
       inkscape:collect="always"
       xlink:href="#linearGradient1092"
       id="linearGradient1206"
       gradientUnits="userSpaceOnUse"
       x1="998.78906"
       y1="408.04239"
       x2="1112.3672"
       y2="404.91739" />
    <linearGradient
       inkscape:collect="always"
       xlink:href="#linearGradient1092"
       id="linearGradient1208"
       gradientUnits="userSpaceOnUse"
       x1="998.78906"
       y1="408.04239"
       x2="1112.3672"
       y2="404.91739" />
    <linearGradient
       inkscape:collect="always"
       xlink:href="#linearGradient1092"
       id="linearGradient1210"
       gradientUnits="userSpaceOnUse"
       x1="998.78906"
       y1="408.04239"
       x2="1112.3672"
       y2="404.91739" />
    <linearGradient
       inkscape:collect="always"
       xlink:href="#linearGradient1092"
       id="linearGradient1212"
       gradientUnits="userSpaceOnUse"
       x1="998.78906"
       y1="408.04239"
       x2="1112.3672"
       y2="404.91739" />
    <linearGradient
       inkscape:collect="always"
       xlink:href="#linearGradient1092"
       id="linearGradient1214"
       gradientUnits="userSpaceOnUse"
       x1="998.78906"
       y1="408.04239"
       x2="1112.3672"
       y2="404.91739" />
    <linearGradient
       inkscape:collect="always"
       xlink:href="#linearGradient1092"
       id="linearGradient1216"
       gradientUnits="userSpaceOnUse"
       x1="998.78906"
       y1="408.04239"
       x2="1112.3672"
       y2="404.91739" />
    <linearGradient
       inkscape:collect="always"
       xlink:href="#linearGradient1092"
       id="linearGradient1218"
       gradientUnits="userSpaceOnUse"
       x1="998.78906"
       y1="408.04239"
       x2="1112.3672"
       y2="404.91739" />
    <linearGradient
       inkscape:collect="always"
       xlink:href="#linearGradient1092"
       id="linearGradient1220"
       gradientUnits="userSpaceOnUse"
       x1="998.78906"
       y1="408.04239"
       x2="1112.3672"
       y2="404.91739" />
    <linearGradient
       inkscape:collect="always"
       xlink:href="#linearGradient1092"
       id="linearGradient1222"
       gradientUnits="userSpaceOnUse"
       x1="998.78906"
       y1="408.04239"
       x2="1112.3672"
       y2="404.91739" />
    <linearGradient
       inkscape:collect="always"
       xlink:href="#linearGradient1092"
       id="linearGradient1224"
       gradientUnits="userSpaceOnUse"
       x1="998.78906"
       y1="408.04239"
       x2="1112.3672"
       y2="404.91739" />
    <linearGradient
       inkscape:collect="always"
       xlink:href="#linearGradient1092"
       id="linearGradient1226"
       gradientUnits="userSpaceOnUse"
       x1="998.78906"
       y1="408.04239"
       x2="1112.3672"
       y2="404.91739" />
    <linearGradient
       inkscape:collect="always"
       xlink:href="#linearGradient1092"
       id="linearGradient1228"
       gradientUnits="userSpaceOnUse"
       x1="998.78906"
       y1="408.04239"
       x2="1112.3672"
       y2="404.91739" />
    <linearGradient
       inkscape:collect="always"
       xlink:href="#linearGradient1092"
       id="linearGradient1230"
       gradientUnits="userSpaceOnUse"
       x1="998.78906"
       y1="408.04239"
       x2="1112.3672"
       y2="404.91739" />
    <linearGradient
       inkscape:collect="always"
       xlink:href="#linearGradient1092"
       id="linearGradient1232"
       gradientUnits="userSpaceOnUse"
       x1="998.78906"
       y1="408.04239"
       x2="1112.3672"
       y2="404.91739" />
    <linearGradient
       inkscape:collect="always"
       xlink:href="#linearGradient1092"
       id="linearGradient1234"
       gradientUnits="userSpaceOnUse"
       x1="998.78906"
       y1="408.04239"
       x2="1112.3672"
       y2="404.91739" />
    <linearGradient
       inkscape:collect="always"
       xlink:href="#linearGradient1092"
       id="linearGradient1236"
       gradientUnits="userSpaceOnUse"
       x1="998.78906"
       y1="408.04239"
       x2="1112.3672"
       y2="404.91739" />
    <linearGradient
       inkscape:collect="always"
       xlink:href="#linearGradient1092"
       id="linearGradient1238"
       gradientUnits="userSpaceOnUse"
       x1="998.78906"
       y1="408.04239"
       x2="1112.3672"
       y2="404.91739" />
    <linearGradient
       inkscape:collect="always"
       xlink:href="#linearGradient1092"
       id="linearGradient1240"
       gradientUnits="userSpaceOnUse"
       x1="998.78906"
       y1="408.04239"
       x2="1112.3672"
       y2="404.91739" />
    <linearGradient
       inkscape:collect="always"
       xlink:href="#linearGradient1092"
       id="linearGradient1242"
       gradientUnits="userSpaceOnUse"
       x1="998.78906"
       y1="408.04239"
       x2="1112.3672"
       y2="404.91739" />
    <linearGradient
       inkscape:collect="always"
       xlink:href="#linearGradient1092"
       id="linearGradient1244"
       gradientUnits="userSpaceOnUse"
       x1="998.78906"
       y1="408.04239"
       x2="1112.3672"
       y2="404.91739" />
    <linearGradient
       inkscape:collect="always"
       xlink:href="#linearGradient1092"
       id="linearGradient1246"
       gradientUnits="userSpaceOnUse"
       x1="998.78906"
       y1="408.04239"
       x2="1112.3672"
       y2="404.91739" />
    <linearGradient
       inkscape:collect="always"
       xlink:href="#linearGradient1092"
       id="linearGradient1248"
       gradientUnits="userSpaceOnUse"
       x1="998.78906"
       y1="408.04239"
       x2="1112.3672"
       y2="404.91739" />
    <linearGradient
       inkscape:collect="always"
       xlink:href="#linearGradient1092"
       id="linearGradient1250"
       gradientUnits="userSpaceOnUse"
       x1="998.78906"
       y1="408.04239"
       x2="1112.3672"
       y2="404.91739" />
    <linearGradient
       inkscape:collect="always"
       xlink:href="#linearGradient1092"
       id="linearGradient1252"
       gradientUnits="userSpaceOnUse"
       x1="998.78906"
       y1="408.04239"
       x2="1112.3672"
       y2="404.91739" />
    <linearGradient
       inkscape:collect="always"
       xlink:href="#linearGradient1092"
       id="linearGradient1254"
       gradientUnits="userSpaceOnUse"
       x1="998.78906"
       y1="408.04239"
       x2="1112.3672"
       y2="404.91739" />
    <linearGradient
       inkscape:collect="always"
       xlink:href="#linearGradient1092"
       id="linearGradient1256"
       gradientUnits="userSpaceOnUse"
       x1="998.78906"
       y1="408.04239"
       x2="1112.3672"
       y2="404.91739" />
  </defs>
  <g
     id="g1086"
     style="fill:url(#linearGradient1094);fill-opacity:1"
     transform="matrix(-1,0,0,1,1112.3672,-307.2849)">
    <g
       clip-path="url(#a)"
       id="g16"
       style="fill:url(#linearGradient1098);fill-opacity:1">
      <path
         d="m 1112.3672,411.09766 c 0,-2.65625 -1.4844,-4.9375 -3.668,-6.12891 l 0.5703,-15.40234 c 0.09,-2.44922 -2.2812,-4.42579 -5.1679,-4.30469 -0.9336,0.0469 -1.6875,0.6875 -1.711,1.49219 l 1.2305,17.58203 c -0.8359,0.21875 -1.6055,0.5625 -2.2891,1.04297 -1.9843,-10.70704 -10.7851,-12.71485 -32.832,-13.08985 l -0.8281,-52.20312 c -0.1446,-9.35547 -6.5821,-17.4375 -15.6641,-19.66016 l -2.7539,-0.67578 c -2.2305,-0.54688 -4.4375,0.96484 -4.7422,3.24609 l -3.4297,25.71094 -6.8437,0.42578 c -0.8516,0.0469 -1.4922,0.78516 -1.4453,1.62891 l 0.4726,7.57422 c 0.051,0.85156 0.7813,1.49609 1.6289,1.44531 l 4.7539,-0.29688 -1.9843,14.86719 -4.9532,0.29688 c -0.8398,0.0586 -1.4921,0.78906 -1.4336,1.64062 l 0.4649,7.57422 c 0.047,0.85156 0.7773,1.49219 1.6289,1.4375 l 2.8555,-0.16797 -1.1446,8.59375 c -15.789,2.75391 -33.3633,8.65625 -61.82419,12.73047 0.0234,-5.20703 0.0508,-9.99219 -0.1914,-14.01562 -0.51172,-8.58594 -6.33204,-12.63672 -10.05469,-6.98829 -3.37891,5.125 -1.47656,12.9961 -1.13281,22.45704 -2.91407,0.32812 -5.92188,0.64453 -9.05469,0.91406 -1.875,0.17187 -1.86719,4.3789 0.0195,4.54687 3.09766,0.28125 6.08984,0.58594 8.99609,0.91016 -0.43359,9.21094 -2.08593,17.53906 1.17188,22.48047 3.72265,5.64453 9.54297,1.59765 10.05469,-6.98047 0.25,-4.03125 0.21484,-8.84375 0.1914,-14.0625 28.13282,3.93359 46.83992,9.58984 61.78132,12.45703 l 1.1875,8.89063 -2.8555,-0.17579 c -0.8516,-0.0586 -1.582,0.59375 -1.6289,1.4375 l -0.4649,7.57422 c -0.058,0.85157 0.5938,1.58203 1.4336,1.62891 l 4.9532,0.3125 1.9843,14.85937 -4.7539,-0.28906 c -0.8476,-0.0547 -1.5781,0.59766 -1.6289,1.4375 l -0.4726,7.57422 c -0.047,0.85156 0.5937,1.57422 1.4453,1.63281 l 6.8437,0.42578 3.4297,25.71094 c 0.3047,2.28125 2.5117,3.78906 4.7422,3.24219 l 2.7539,-0.67188 c 9.082,-2.22656 15.5195,-10.29687 15.6641,-19.65625 l 0.8281,-52.21484 c 22.0469,-0.37109 30.8477,-2.38672 32.832,-13.09375 0.6993,0.5 1.4922,0.85938 2.3438,1.07031 l -1.2852,18.42578 c 0.024,0.79297 0.7774,1.44532 1.711,1.48438 2.8867,0.12891 5.2578,-1.84766 5.1679,-4.30469 l -0.5937,-16.24219 c 2.1914,-1.17968 3.6914,-3.46875 3.6914,-6.13671"
         id="path14"
         style="fill:url(#linearGradient1096);fill-opacity:1" />
    </g>
    <path
       d="m 376.66016,378.85156 c -0.67579,0.21485 -1.10157,0.84375 -1.10157,1.50781 0,0.16797 0.0234,0.33204 0.0742,0.49219 0.61719,1.91797 0.9375,3.86328 0.94531,5.77344 0.008,0.875 0.72266,1.58203 1.60547,1.58203 0.86719,-0.008 1.57422,-0.72266 1.57422,-1.58984 0,-0.008 0,-0.008 0,-0.008 -0.008,-2.23437 -0.38672,-4.50781 -1.10156,-6.73046 -0.27344,-0.83594 -1.16406,-1.30079 -1.99609,-1.02735"
       id="path18"
       style="fill:url(#linearGradient1100);fill-opacity:1" />
    <path
       d="m 406.8125,428.52734 c -2.05469,-0.4414 -4.10938,-0.90625 -6.15625,-1.39453 -0.85156,-0.21094 -1.71094,0.32031 -1.91797,1.17188 -0.0312,0.12109 -0.0391,0.24609 -0.0391,0.375 0,0.71484 0.48828,1.36718 1.21094,1.54297 2.07812,0.5 4.15625,0.97265 6.24218,1.42187 0.85938,0.17578 1.70313,-0.37109 1.88672,-1.23047 0.20703,-0.85937 -0.36719,-1.69922 -1.22656,-1.88672"
       id="path20"
       style="fill:url(#linearGradient1102);fill-opacity:1" />
    <path
       d="m 347.73437,366.29687 c 0.33594,-0.16796 0.6836,-0.32812 1.03516,-0.47265 1.44531,-0.58985 2.95313,-0.96485 4.49609,-1.125 0.86719,-0.0899 1.5,-0.86719 1.42579,-1.73438 -0.0859,-0.8789 -0.875,-1.51953 -1.73829,-1.42968 -1.84765,0.18359 -3.66015,0.64062 -5.39453,1.34765 -0.41797,0.17578 -0.82812,0.36328 -1.21875,0.55469 -0.5625,0.28125 -0.89062,0.84375 -0.89062,1.42969 0,0.24218 0.0469,0.47265 0.16015,0.69922 0.39063,0.79296 1.33985,1.11718 2.125,0.73046"
       id="path22"
       style="fill:url(#linearGradient1104);fill-opacity:1" />
    <path
       d="m 342.84766,415.48437 c -1.25391,0.0899 -2.4961,0.12891 -3.74219,0.12891 -0.8086,0 -1.6211,-0.0156 -2.42969,-0.0547 -0.875,-0.043 -1.62109,0.64063 -1.65234,1.52344 0,0.0234 0,0.0391 0,0.0664 0,0.84375 0.65625,1.54687 1.51562,1.58984 0.85156,0.0312 1.71094,0.0547 2.56641,0.0547 1.3164,0 2.64062,-0.0469 3.96484,-0.13672 0.875,-0.0625 1.50391,-0.82813 1.46875,-1.70313 -0.0625,-0.875 -0.8164,-1.53125 -1.6914,-1.46875"
       id="path24"
       style="fill:url(#linearGradient1106);fill-opacity:1" />
    <path
       d="m 388.40234,423.93359 -6.10937,-1.71093 c -0.84375,-0.23047 -1.64453,0.27343 -1.88672,1.11718 -0.0391,0.13672 -0.0547,0.27344 -0.0547,0.40235 0,0.71484 0.51172,1.3789 1.21875,1.58203 l 5.98828,1.67187 c 0.84375,0.23047 1.72657,-0.26562 1.95703,-1.10937 0.21875,-0.85156 -0.26562,-1.71875 -1.11328,-1.95313"
       id="path26"
       style="fill:url(#linearGradient1108);fill-opacity:1" />
    <path
       d="m 353.34375,410.63281 c -1.78125,-1.15625 -3.43359,-2.39453 -4.93359,-3.66406 -0.66016,-0.57031 -1.66407,-0.49609 -2.24219,0.17969 -0.2461,0.28906 -0.375,0.65625 -0.375,1.02734 0,0.44922 0.18359,0.89063 0.5625,1.21094 1.59765,1.36719 3.37109,2.67578 5.26172,3.91406 0.73047,0.47266 1.71875,0.27344 2.1914,-0.46875 0.48438,-0.73828 0.27344,-1.71875 -0.46484,-2.19922"
       id="path28"
       style="fill:url(#linearGradient1110);fill-opacity:1" />
    <path
       d="m 362.48437,410.9375 c -0.42578,-0.76953 -1.39453,-1.04297 -2.15625,-0.61719 -1.77343,0.98047 -3.63671,1.84766 -5.55468,2.57813 -0.63282,0.24218 -1.02735,0.84375 -1.02735,1.47656 0,0.19531 0.0312,0.37891 0.10547,0.57031 0.30469,0.82031 1.21875,1.23047 2.04688,0.92578 2.05468,-0.78125 4.0664,-1.71093 5.96093,-2.77343 0.77735,-0.42579 1.04297,-1.38672 0.625,-2.16016"
       id="path30"
       style="fill:url(#linearGradient1112);fill-opacity:1" />
    <path
       d="m 375.54297,397.33203 c -0.76172,-0.43359 -1.73438,-0.16797 -2.16797,0.59375 -0.96094,1.69531 -2.15625,3.33203 -3.53125,4.875 -0.26953,0.29688 -0.39844,0.68359 -0.39844,1.05469 0,0.4414 0.17578,0.875 0.52735,1.1875 0.66015,0.58594 1.66406,0.53125 2.23828,-0.1211 1.52734,-1.71093 2.84375,-3.53515 3.91797,-5.41406 0.43359,-0.76172 0.18359,-1.73437 -0.58594,-2.17578"
       id="path32"
       style="fill:url(#linearGradient1114);fill-opacity:1" />
    <path
       d="m 370.22266,418.50391 c -1.98438,-0.69141 -3.94141,-1.41407 -5.86719,-2.20704 -0.80078,-0.33203 -1.73438,0.0469 -2.07031,0.86719 -0.082,0.19922 -0.1211,0.40235 -0.1211,0.60156 0,0.625 0.37891,1.22266 0.98828,1.46875 1.97266,0.8125 3.9961,1.56641 6.02735,2.27344 0.83593,0.28906 1.74218,-0.14453 2.02343,-0.98047 0.32032,-0.83593 -0.14453,-1.73437 -0.98046,-2.02343"
       id="path34"
       style="fill:url(#linearGradient1116);fill-opacity:1" />
    <path
       d="m 425.44531,431.33984 c -2.07031,-0.16015 -4.14844,-0.3789 -6.23437,-0.65234 -0.875,-0.10938 -1.66016,0.5 -1.78125,1.36719 -0.008,0.0703 -0.0156,0.14453 -0.0156,0.21484 0,0.78125 0.58594,1.47266 1.38672,1.57422 2.13672,0.27344 4.27734,0.50781 6.39844,0.66797 0.875,0.0742 1.63672,-0.58594 1.70703,-1.46094 0.12109,-0.88281 -0.58594,-1.64062 -1.46094,-1.71094"
       id="path36"
       style="fill:url(#linearGradient1118);fill-opacity:1" />
    <path
       d="m 552.60547,415.91016 c -1.96094,-0.84375 -3.9336,-1.67188 -5.90625,-2.45704 -0.8125,-0.33203 -1.73438,0.0703 -2.0625,0.89063 -0.082,0.19141 -0.11328,0.38672 -0.11328,0.58594 0,0.63672 0.375,1.23047 0.99609,1.47656 1.94922,0.78125 3.89063,1.59375 5.83203,2.42578 0.80469,0.33984 1.74219,-0.0312 2.07813,-0.83984 0.34765,-0.80469 -0.0234,-1.73828 -0.82422,-2.08203"
       id="path38"
       style="fill:url(#linearGradient1120);fill-opacity:1" />
    <path
       d="m 534.57812,409.16406 c -2.07031,-0.62109 -4.15625,-1.16406 -6.24218,-1.64062 -0.85938,-0.19141 -1.71094,0.33984 -1.90235,1.19922 -0.0234,0.12109 -0.0391,0.23828 -0.0391,0.35156 0,0.73047 0.50391,1.38281 1.24219,1.55078 2.02344,0.45703 4.02734,0.99609 6.03515,1.58984 0.83594,0.25 1.72657,-0.22265 1.97266,-1.0664 0.27344,-0.84375 -0.23047,-1.72657 -1.06641,-1.98438"
       id="path40"
       style="fill:url(#linearGradient1122);fill-opacity:1" />
    <path
       d="m 444.12891,430.88281 c -2.00391,0.28906 -4.08985,0.4961 -6.19532,0.625 -0.83984,0.0391 -1.49218,0.7461 -1.49218,1.58203 0,0.0312 0,0.0664 0,0.0977 0.0547,0.875 0.80468,1.54297 1.67968,1.49219 2.19532,-0.13672 4.3711,-0.34375 6.45703,-0.64844 0.86719,-0.12109 1.4961,-0.92578 1.34375,-1.80078 -0.12109,-0.875 -0.92578,-1.47656 -1.79296,-1.34766"
       id="path42"
       style="fill:url(#linearGradient1124);fill-opacity:1" />
    <path
       d="m 569.98828,360.66406 c -0.82031,0.082 -1.42969,0.77344 -1.42969,1.58594 0,0.0469 0,0.10156 0,0.15234 0.21094,2.1836 0.53907,4.34375 0.98047,6.44922 0.17578,0.85938 1.01953,1.41406 1.87891,1.22656 0.85547,-0.17578 1.3789,-1.01171 1.23437,-1.8789 -0.41797,-1.98438 -0.73047,-4.03906 -0.92187,-6.09375 -0.0898,-0.87891 -0.86719,-1.51953 -1.74219,-1.44141"
       id="path44"
       style="fill:url(#linearGradient1126);fill-opacity:1" />
    <path
       d="m 570.05859,423.59766 c -1.92578,-0.82813 -3.86718,-1.6875 -5.80078,-2.54688 -0.80078,-0.36328 -1.75,0.008 -2.10156,0.80469 -0.0898,0.21484 -0.13672,0.42578 -0.13672,0.64844 0,0.60937 0.35156,1.1875 0.94531,1.45312 1.94922,0.86719 3.90235,1.72656 5.83594,2.5625 0.80078,0.34766 1.74219,-0.0312 2.08594,-0.83594 0.35156,-0.80078 -0.0234,-1.74218 -0.82813,-2.08593"
       id="path46"
       style="fill:url(#linearGradient1128);fill-opacity:1" />
    <path
       d="m 461.92969,425.66797 c -2.01172,0.91015 -3.89844,1.66406 -5.76172,2.3125 -0.65625,0.22656 -1.06641,0.84375 -1.06641,1.5039 0,0.16797 0.0312,0.34375 0.0781,0.52344 0.30078,0.82422 1.20703,1.26563 2.02343,0.97656 1.96094,-0.67968 3.92579,-1.46875 6.03516,-2.41406 0.80469,-0.36328 1.16406,-1.30469 0.79688,-2.10547 -0.36329,-0.79687 -1.30079,-1.15625 -2.10547,-0.79687"
       id="path48"
       style="fill:url(#linearGradient1130);fill-opacity:1" />
    <path
       d="m 478.65625,416.78516 -5.55469,3.125 c -0.51953,0.28906 -0.8164,0.82812 -0.8164,1.39062 0,0.25781 0.0625,0.51953 0.20703,0.76953 0.41797,0.76172 1.39062,1.04297 2.16015,0.60938 l 5.54688,-3.10547 c 0.76953,-0.42578 1.05078,-1.39844 0.61719,-2.17188 -0.4336,-0.76172 -1.39844,-1.04297 -2.16016,-0.61718"
       id="path50"
       style="fill:url(#linearGradient1132);fill-opacity:1" />
    <path
       d="m 571.57031,341.72656 c -0.86719,-0.17578 -1.70312,0.37891 -1.88672,1.23828 L 569.5,343.88672 c -0.36328,1.86328 -0.63672,3.69531 -0.82813,5.5039 -0.0156,0.0547 -0.0156,0.11719 -0.0156,0.17579 0,0.80078 0.60937,1.49218 1.42187,1.58203 0.8711,0.0859 1.65235,-0.53907 1.7461,-1.41407 0.19531,-1.72656 0.44922,-3.46875 0.78906,-5.22265 l 0.18359,-0.90625 c 0.16016,-0.86719 -0.36718,-1.70313 -1.22656,-1.87891"
       id="path52"
       style="fill:url(#linearGradient1134);fill-opacity:1" />
    <path
       d="m 515.46875,405.77344 c -0.71484,-0.0234 -1.41797,-0.0391 -2.125,-0.0391 -1.46875,0 -2.94531,0.0547 -4.40625,0.17579 -0.83594,0.0625 -1.46875,0.76171 -1.46875,1.58203 0,0.0391 0,0.0898 0.008,0.1289 0.0703,0.875 0.83594,1.52735 1.71094,1.45313 1.38672,-0.10547 2.77344,-0.16016 4.15625,-0.16016 0.67187,0 1.33984,0.0156 2.01562,0.0391 0.88282,0.0352 1.61329,-0.65625 1.65235,-1.53125 -0.0312,-0.90234 -0.66016,-1.61718 -1.54297,-1.64843"
       id="path54"
       style="fill:url(#linearGradient1136);fill-opacity:1" />
    <path
       d="m 496.14453,408.5625 c -1.95703,0.66406 -3.94141,1.4375 -6.05078,2.375 -0.59375,0.26562 -0.94922,0.84375 -0.94922,1.45312 0,0.21094 0.0508,0.4336 0.14453,0.64454 0.35547,0.80078 1.29297,1.16406 2.09766,0.8125 2.01172,-0.90235 3.90625,-1.64063 5.77734,-2.27344 0.83594,-0.27344 1.27735,-1.17578 0.9961,-2.00781 -0.27344,-0.83594 -1.17969,-1.27735 -2.01563,-1.00391"
       id="path56"
       style="fill:url(#linearGradient1138);fill-opacity:1" />
    <path
       d="m 623.47266,311.79297 c 1.98046,0.45703 3.97265,1.04297 5.91406,1.73437 0.83203,0.29688 1.74219,-0.13672 2.03125,-0.96484 0.30469,-0.82813 -0.13672,-1.74219 -0.95703,-2.03125 -2.0625,-0.73047 -4.17188,-1.35156 -6.27735,-1.83984 -0.84765,-0.20313 -1.69922,0.33593 -1.90234,1.1875 -0.0312,0.1289 -0.0391,0.24218 -0.0391,0.36328 0,0.72265 0.48828,1.3789 1.23047,1.55078"
       id="path58"
       style="fill:url(#linearGradient1140);fill-opacity:1" />
    <path
       d="m 676.51172,358.625 c 1.11719,-1.78906 2.24609,-3.57422 3.40234,-5.33984 0.48047,-0.73829 0.26563,-1.72657 -0.47265,-2.20313 -0.73047,-0.48047 -1.71875,-0.26953 -2.19922,0.46875 -1.14844,1.78125 -2.29688,3.58203 -3.42578,5.38672 -0.16016,0.25781 -0.24219,0.54687 -0.24219,0.83594 0,0.53125 0.27344,1.05468 0.74609,1.35156 0.7461,0.47266 1.72656,0.24609 2.19141,-0.5"
       id="path60"
       style="fill:url(#linearGradient1142);fill-opacity:1" />
    <path
       d="m 641.64062,319.71094 c 1.33204,0.89843 2.60938,1.84765 3.85157,2.83593 0.6914,0.55469 1.6875,0.44141 2.23047,-0.25 0.5625,-0.68359 0.4414,-1.67968 -0.2461,-2.23437 -1.30078,-1.04297 -2.65625,-2.03906 -4.05469,-2.98828 l -1.23437,-0.8086 c -0.73828,-0.48437 -1.72656,-0.26562 -2.19922,0.47266 -0.16797,0.26563 -0.25,0.57031 -0.25,0.85938 0,0.52343 0.25,1.03515 0.72266,1.34375 l 1.17968,0.76953"
       id="path62"
       style="fill:url(#linearGradient1144);fill-opacity:1" />
    <g
       clip-path="url(#b)"
       id="g66"
       style="fill:url(#linearGradient1148);fill-opacity:1">
      <path
         d="m 605.14062,310.98828 c 1.97266,-0.30469 4.02735,-0.49219 6.11329,-0.53125 0.875,-0.008 1.49609,-0.70703 1.55859,-1.61328 -0.0234,-0.875 -0.73828,-1.57422 -1.62109,-1.55859 -2.22266,0.0312 -4.42188,0.23437 -6.53907,0.57031 -0.78906,0.12109 -1.34375,0.79687 -1.34375,1.5664 0,0.0781 0.0117,0.16797 0.0195,0.25 0.13282,0.86719 0.95313,1.46094 1.8125,1.31641"
         id="path64"
         style="fill:url(#linearGradient1146);fill-opacity:1" />
    </g>
    <path
       d="m 767.98828,359.62109 c 0.20703,1.83203 0.30469,3.74219 0.30469,5.61328 l -0.008,0.5625 c 0,0.87891 0.71484,1.59375 1.58984,1.59375 0.88281,0 1.58984,-0.71484 1.58984,-1.59375 l 0.008,-0.5039 c 0,-2.04688 -0.10547,-4.06641 -0.32422,-6.01563 -0.0937,-0.875 -0.875,-1.51172 -1.7461,-1.41406 -0.82031,0.0859 -1.42187,0.78516 -1.42187,1.58203 0,0.0547 0,0.11328 0.008,0.17578"
       id="path68"
       style="fill:url(#linearGradient1150);fill-opacity:1" />
    <path
       d="m 574.73828,332.73828 c 0.78906,0.40234 1.74219,0.0898 2.13672,-0.69922 0.9375,-1.82422 1.99609,-3.59765 3.16016,-5.2539 0.50781,-0.72266 0.32812,-1.71094 -0.39063,-2.20704 -0.71484,-0.50781 -1.70312,-0.33593 -2.21484,0.37891 -1.23828,1.78125 -2.38672,3.67578 -3.37891,5.63672 -0.12109,0.24219 -0.17969,0.48047 -0.17969,0.73047 0,0.57031 0.32422,1.13281 0.86719,1.41406"
       id="path70"
       style="fill:url(#linearGradient1152);fill-opacity:1" />
    <path
       d="m 716.36719,321.02734 c 1.97265,-0.58593 3.98047,-1.01953 5.95312,-1.28515 0.86719,-0.11328 1.4375,-0.90625 1.375,-1.78125 -0.12109,-0.875 -0.92187,-1.48828 -1.78906,-1.36719 -2.14453,0.28125 -4.3125,0.74609 -6.44531,1.39062 -0.69141,0.19922 -1.13282,0.83594 -1.13282,1.52735 0,0.14453 0.0156,0.29687 0.0664,0.44922 0.24609,0.84375 1.13672,1.3164 1.97266,1.0664"
       id="path72"
       style="fill:url(#linearGradient1154);fill-opacity:1" />
    <path
       d="m 755.37891,332.21484 c 0.60937,0.62891 1.62109,0.63672 2.24609,0.0274 0.62891,-0.61328 0.63672,-1.625 0.0352,-2.25 -1.54297,-1.58203 -3.17969,-3.0625 -4.87891,-4.39453 -0.69922,-0.54688 -1.69531,-0.41797 -2.24219,0.27343 -0.22265,0.28907 -0.32812,0.63282 -0.32812,0.98047 0,0.47266 0.20703,0.9375 0.60156,1.25391 1.58984,1.24219 3.12109,2.625 4.56641,4.10937"
       id="path74"
       style="fill:url(#linearGradient1156);fill-opacity:1" />
    <path
       d="m 734.41797,320.22656 c 1.95703,0.42188 3.90625,1.01953 5.8164,1.77344 0.82813,0.32031 1.75,-0.082 2.0625,-0.89844 0.33204,-0.82031 -0.0859,-1.74609 -0.89062,-2.0664 -2.07031,-0.8086 -4.19531,-1.46094 -6.32422,-1.91797 -0.85156,-0.1875 -1.69141,0.35937 -1.88672,1.21875 -0.0234,0.11328 -0.0312,0.22656 -0.0312,0.33984 0,0.73047 0.50781,1.38672 1.25391,1.55078"
       id="path76"
       style="fill:url(#linearGradient1158);fill-opacity:1" />
    <path
       d="m 272.81641,390.22266 c -1.94141,-0.92188 -3.88672,-1.8125 -5.85938,-2.65625 -0.80078,-0.34766 -1.73437,0.0312 -2.07812,0.84375 -0.0899,0.19921 -0.12891,0.41406 -0.12891,0.61718 0,0.61719 0.35937,1.20313 0.97266,1.46094 1.91796,0.82813 3.82812,1.69531 5.71875,2.60938 0.79687,0.37109 1.74218,0.0351 2.12109,-0.75391 0.375,-0.78516 0.0469,-1.74219 -0.74609,-2.12109"
       id="path78"
       style="fill:url(#linearGradient1160);fill-opacity:1" />
    <path
       d="m 289.79687,399.05859 -5.60156,-3.01172 c -0.77734,-0.41015 -1.74219,-0.12109 -2.14844,0.66016 -0.1289,0.23828 -0.19531,0.48828 -0.19531,0.74609 0,0.5625 0.30469,1.11719 0.84375,1.40625 l 5.59375,3.00391 c 0.76953,0.41797 1.74219,0.12891 2.16016,-0.65234 0.39844,-0.76953 0.10937,-1.73438 -0.65235,-2.15235"
       id="path80"
       style="fill:url(#linearGradient1162);fill-opacity:1" />
    <path
       d="m 306.69922,407.59766 c -1.91797,-0.85938 -3.8125,-1.75782 -5.69141,-2.6836 -0.78515,-0.38672 -1.73047,-0.0625 -2.125,0.72266 -0.11328,0.23437 -0.16015,0.46484 -0.16015,0.69922 0,0.59375 0.32031,1.15625 0.88281,1.4375 1.91015,0.9414 3.85156,1.85547 5.80859,2.73047 0.79688,0.35546 1.73438,0 2.09766,-0.8125 0.36719,-0.80079 0.008,-1.74219 -0.8125,-2.09375"
       id="path82"
       style="fill:url(#linearGradient1164);fill-opacity:1" />
    <path
       d="m 324.41406,413.77344 c -2.01562,-0.47266 -4.02344,-1.03516 -6.0039,-1.67969 -0.84375,-0.26563 -1.73438,0.20312 -2,1.04687 -0.0469,0.15235 -0.0703,0.3125 -0.0703,0.47266 0,0.67578 0.42578,1.30078 1.09766,1.51953 2.0625,0.65625 4.14062,1.23438 6.22656,1.74219 0.85938,0.19922 1.71094,-0.32422 1.92188,-1.18359 0.18359,-0.84766 -0.32422,-1.70704 -1.17188,-1.91797"
       id="path84"
       style="fill:url(#linearGradient1166);fill-opacity:1" />
    <path
       d="m 336.20312,381.44531 c 0.86719,0.15235 1.69141,-0.42578 1.83594,-1.28515 0.35547,-2.02344 0.94922,-3.92188 1.76563,-5.65625 0.37109,-0.79297 0.0312,-1.74219 -0.76172,-2.10938 -0.79297,-0.37891 -1.74219,-0.0352 -2.11719,0.76172 -0.93359,1.98437 -1.60547,4.15234 -2.00781,6.44922 -0.0234,0.0898 -0.0312,0.18359 -0.0312,0.27344 0,0.76171 0.54297,1.42968 1.3164,1.5664"
       id="path86"
       style="fill:url(#linearGradient1168);fill-opacity:1" />
    <path
       d="m 216.33203,384 c -2.05469,0.86719 -4.03125,1.88672 -5.85937,3.04297 -0.48829,0.29687 -0.7461,0.82031 -0.7461,1.34765 0,0.28125 0.0781,0.58204 0.24219,0.84375 0.46484,0.74219 1.44141,0.96485 2.1875,0.5 1.6875,-1.0625 3.50781,-2 5.41016,-2.79687 0.8125,-0.33594 1.19531,-1.27734 0.85156,-2.08594 -0.34375,-0.80469 -1.27735,-1.1914 -2.08594,-0.85156"
       id="path88"
       style="fill:url(#linearGradient1170);fill-opacity:1" />
    <path
       d="m 369.28516,370.89844 c 0.63281,0.60937 1.64453,0.57812 2.24609,-0.0547 0.60937,-0.63672 0.57812,-1.64063 -0.0469,-2.25 -1.66406,-1.57422 -3.47656,-2.93359 -5.40234,-4.02344 -0.76172,-0.43359 -1.72656,-0.16797 -2.16797,0.59375 -0.13672,0.24219 -0.20703,0.51563 -0.20703,0.77735 0,0.55468 0.28906,1.09375 0.80078,1.39062 1.70313,0.96484 3.3086,2.16797 4.77735,3.56641"
       id="path90"
       style="fill:url(#linearGradient1172);fill-opacity:1" />
    <path
       d="m 336.67578,390.95312 c -0.70703,0.19532 -1.17969,0.82813 -1.17969,1.53516 0,0.13672 0.0234,0.27344 0.0547,0.41016 0.58594,2.1914 1.39063,4.29687 2.39453,6.25 0.39844,0.77734 1.35547,1.08984 2.14063,0.67968 0.76953,-0.39843 1.09375,-1.35546 0.6914,-2.13281 -0.90625,-1.7539 -1.6289,-3.64062 -2.16015,-5.61719 -0.22266,-0.84375 -1.08985,-1.34765 -1.94141,-1.125"
       id="path92"
       style="fill:url(#linearGradient1174);fill-opacity:1" />
    <path
       d="m 254.82031,383.19531 c -2.08594,-0.59375 -4.21094,-1.10156 -6.30469,-1.5 -0.86718,-0.17187 -1.69531,0.39063 -1.86328,1.25 -0.0234,0.10547 -0.0312,0.21094 -0.0312,0.31641 0,0.73828 0.52735,1.40234 1.28125,1.55469 2.01563,0.38671 4.05469,0.87109 6.05469,1.4414 0.83984,0.23828 1.72266,-0.25 1.95703,-1.09375 0.24219,-0.85156 -0.25781,-1.72656 -1.09375,-1.96875"
       id="path94"
       style="fill:url(#linearGradient1176);fill-opacity:1" />
    <path
       d="m 229.05078,380.76953 c -0.80859,0.0977 -1.40234,0.78125 -1.40234,1.57422 0,0.0664 0,0.12891 0.008,0.18359 0.0937,0.87891 0.89062,1.50391 1.75781,1.39844 1.98047,-0.22266 4.04297,-0.33594 6.16406,-0.33594 l -0.0156,-3.1875 c -2.21875,0 -4.40625,0.125 -6.51172,0.36719"
       id="path96"
       style="fill:url(#linearGradient1178);fill-opacity:1" />
    <path
       d="m 633.97656,436.17578 c -1.78125,-1.10156 -3.57812,-2.23437 -5.36328,-3.375 -0.73828,-0.47266 -1.72266,-0.25781 -2.19531,0.48438 -0.17188,0.26171 -0.25,0.55859 -0.25,0.85937 0,0.51953 0.26562,1.03516 0.73047,1.33203 1.80468,1.15625 3.60937,2.28906 5.41797,3.40625 0.73828,0.45703 1.72265,0.23047 2.17968,-0.51562 0.46094,-0.75391 0.23438,-1.73438 -0.51953,-2.19141"
       id="path98"
       style="fill:url(#linearGradient1180);fill-opacity:1" />
    <path
       d="m 719.69922,431.29297 c -0.33985,-0.8125 -1.26172,-1.20703 -2.07031,-0.87891 -1.92969,0.79688 -3.89454,1.53516 -5.86719,2.22656 -0.66016,0.23438 -1.07031,0.84375 -1.07031,1.50391 0,0.17578 0.0351,0.35156 0.0898,0.51953 0.28906,0.83594 1.19531,1.26953 2.02344,0.98047 2.03906,-0.70703 4.04297,-1.46875 6.02734,-2.28125 0.80859,-0.32812 1.1875,-1.25391 0.86719,-2.07031"
       id="path100"
       style="fill:url(#linearGradient1182);fill-opacity:1" />
    <path
       d="m 762.3125,394.76172 c -0.76953,-0.4336 -1.73047,-0.16016 -2.15625,0.60937 -1.01953,1.79297 -2.12109,3.56641 -3.29297,5.26953 -0.19141,0.27344 -0.28125,0.58594 -0.28125,0.89844 0,0.5 0.24219,1.00391 0.68359,1.3125 0.72266,0.4961 1.71094,0.3125 2.21485,-0.40234 1.21875,-1.78516 2.38281,-3.64063 3.43359,-5.52735 0.42578,-0.76171 0.16406,-1.73437 -0.60156,-2.16015"
       id="path102"
       style="fill:url(#linearGradient1184);fill-opacity:1" />
    <path
       d="m 768.75,376.85937 c -0.85156,-0.19531 -1.69922,0.33594 -1.90234,1.19532 -0.45704,2.01562 -1.01954,4.02343 -1.66797,5.97656 -0.0586,0.16797 -0.082,0.33594 -0.082,0.50391 0,0.66015 0.42578,1.28515 1.08593,1.5039 0.83203,0.28125 1.73047,-0.16797 2.01172,-1.0039 0.6836,-2.04688 1.26953,-4.16016 1.75781,-6.27344 0.13672,-0.85938 -0.34375,-1.71094 -1.20312,-1.90235"
       id="path104"
       style="fill:url(#linearGradient1186);fill-opacity:1" />
    <path
       d="m 758.50781,452.10156 c -1.91797,0.86719 -3.83594,1.70313 -5.78515,2.49219 -0.61719,0.24609 -0.98829,0.84375 -0.98829,1.47656 0,0.19922 0.0352,0.40235 0.1211,0.59375 0.32812,0.8125 1.2539,1.21485 2.0625,0.88281 1.98437,-0.80859 3.95703,-1.66015 5.89844,-2.55468 0.80468,-0.35938 1.17968,-1.30078 0.79687,-2.10157 -0.37109,-0.80468 -1.30859,-1.15625 -2.10547,-0.78906"
       id="path106"
       style="fill:url(#linearGradient1188);fill-opacity:1" />
    <path
       d="m 736.49609,422.32031 c -0.47265,-0.74609 -1.46093,-0.95703 -2.19922,-0.49219 -1.74218,1.125 -3.53906,2.1875 -5.3789,3.19922 -0.51172,0.28907 -0.8086,0.83594 -0.8086,1.39844 0,0.25391 0.0547,0.51953 0.19141,0.76172 0.42578,0.76172 1.39063,1.05078 2.16016,0.625 1.89453,-1.04297 3.74609,-2.14453 5.55468,-3.30078 0.7461,-0.47266 0.95313,-1.46094 0.48047,-2.19141"
       id="path108"
       style="fill:url(#linearGradient1190);fill-opacity:1" />
    <path
       d="m 775.32422,443.41797 c -1.83985,1.03125 -3.6836,2.05859 -5.54688,3.04687 -0.53906,0.28907 -0.83593,0.83594 -0.83593,1.40625 0,0.25391 0.0586,0.51172 0.1875,0.75391 0.41796,0.76953 1.3789,1.05859 2.14843,0.64062 1.87891,-1.0039 3.75,-2.03125 5.60157,-3.07421 0.76562,-0.42579 1.01953,-1.39844 0.60156,-2.16016 -0.42188,-0.77344 -1.39453,-1.03906 -2.15625,-0.61328"
       id="path110"
       style="fill:url(#linearGradient1192);fill-opacity:1" />
    <path
       d="m 722.44922,462.24609 c -2.07031,0.21875 -4.15625,0.37891 -6.24219,0.49219 -0.85156,0.0391 -1.50781,0.73828 -1.50781,1.58203 0,0.0234 0,0.0547 0,0.0859 0.0391,0.86719 0.79297,1.54297 1.66797,1.50391 2.15234,-0.10547 4.28515,-0.27344 6.42187,-0.5 0.85547,-0.0859 1.46875,-0.85938 1.41016,-1.75 -0.0937,-0.875 -0.875,-1.5 -1.75,-1.41407"
       id="path112"
       style="fill:url(#linearGradient1194);fill-opacity:1" />
    <path
       d="m 748.88672,410.16016 c -1.46094,1.47656 -2.98438,2.88281 -4.5586,4.23828 -0.35937,0.32422 -0.55468,0.76562 -0.55468,1.20703 0,0.36719 0.1289,0.73828 0.38672,1.03515 0.57031,0.66797 1.58203,0.7461 2.23828,0.16797 1.64453,-1.40625 3.22656,-2.875 4.74218,-4.41015 0.62891,-0.625 0.62891,-1.62891 -0.008,-2.2461 -0.625,-0.62109 -1.6289,-0.61328 -2.24609,0.008"
       id="path114"
       style="fill:url(#linearGradient1196);fill-opacity:1" />
    <path
       d="m 740.87891,458.69531 c -2.00782,0.57031 -4.03125,1.08594 -6.0625,1.53516 -0.7461,0.16015 -1.25,0.82031 -1.25,1.55078 0,0.11328 0.0156,0.23437 0.0391,0.34375 0.19531,0.85937 1.03515,1.39844 1.89453,1.20703 2.09375,-0.46484 4.17969,-0.98828 6.24609,-1.57422 0.84766,-0.24219 1.34766,-1.11719 1.09766,-1.96875 -0.24219,-0.84375 -1.125,-1.32422 -1.96484,-1.09375"
       id="path116"
       style="fill:url(#linearGradient1198);fill-opacity:1" />
    <path
       d="m 767.22656,348.58594 c 0.82422,-0.3125 1.25,-1.23047 0.92969,-2.04688 -0.37891,-1.0039 -0.78516,-1.99219 -1.23438,-2.98047 -0.44921,-1.01172 -0.94921,-2.01562 -1.47656,-3.0039 -0.41797,-0.77344 -1.39062,-1.0625 -2.16015,-0.64453 -0.53907,0.28906 -0.82813,0.83593 -0.82813,1.39843 0,0.25782 0.0586,0.51563 0.1875,0.75391 0.49609,0.92578 0.95313,1.85547 1.38672,2.80469 0.41016,0.91406 0.79297,1.84765 1.14844,2.78515 0.3125,0.82813 1.22656,1.2461 2.04687,0.9336"
       id="path118"
       style="fill:url(#linearGradient1200);fill-opacity:1" />
    <path
       d="m 882.45703,405.02734 c -2.14062,0.1211 -4.27734,0.28125 -6.40234,0.48047 -0.82032,0.0742 -1.4375,0.77344 -1.4375,1.58203 0,0.0508 0,0.0977 0,0.14453 0.0859,0.875 0.85937,1.51954 1.73437,1.4375 2.09375,-0.1914 4.17969,-0.35156 6.28906,-0.47265 0.875,-0.0547 1.47657,-0.82813 1.49219,-1.6875 -0.0547,-0.875 -0.80078,-1.54297 -1.67578,-1.48438"
       id="path120"
       style="fill:url(#linearGradient1202);fill-opacity:1" />
    <path
       d="m 920.79687,406.59375 c -2.12109,-0.30469 -4.23828,-0.57031 -6.35937,-0.80469 -0.87109,-0.0859 -1.66016,0.53906 -1.75391,1.41406 -0.0117,0.0547 -0.0117,0.11329 -0.0117,0.16797 0,0.80469 0.60547,1.4961 1.41407,1.58203 2.09375,0.22657 4.17968,0.49219 6.26172,0.78907 0.86718,0.12109 1.66796,-0.48438 1.78906,-1.35938 0.15234,-0.85937 -0.47266,-1.66797 -1.33985,-1.78906"
       id="path122"
       style="fill:url(#linearGradient1204);fill-opacity:1" />
    <path
       d="m 901.65625,404.84375 c -2.13672,-0.082 -4.26953,-0.13672 -6.40625,-0.15625 -0.88281,-0.008 -1.59766,0.69922 -1.59766,1.57812 0,0.008 0,0.008 0,0.0156 0,0.875 0.69922,1.58203 1.57422,1.58984 2.09375,0.0156 4.20313,0.0625 6.3086,0.15235 0.875,0.0312 1.61328,-0.65235 1.65234,-1.52735 -0.0391,-0.875 -0.64844,-1.62109 -1.53125,-1.65234"
       id="path124"
       style="fill:url(#linearGradient1206);fill-opacity:1" />
    <path
       d="m 938.58203,410.02344 c -1.71094,-0.41797 -3.4375,-0.8125 -5.15234,-1.17969 -0.86719,-0.1875 -1.71094,0.35937 -1.89453,1.21875 -0.0234,0.11328 -0.0352,0.22656 -0.0352,0.33594 0,0.73437 0.50781,1.39062 1.25391,1.55078 1.70312,0.36328 3.38671,0.75 5.07031,1.16406 0.85156,0.21094 1.71094,-0.3125 1.92969,-1.16406 0.17578,-0.85156 -0.31641,-1.71094 -1.17188,-1.92578"
       id="path126"
       style="fill:url(#linearGradient1208);fill-opacity:1" />
    <path
       d="m 863.33984,407.10547 c -2.11718,0.33984 -4.22265,0.70703 -6.3164,1.11719 -0.75391,0.15234 -1.28516,0.82031 -1.28516,1.55859 0,0.10547 0.0117,0.21094 0.0352,0.30469 0.16797,0.86718 0.99218,1.42968 1.85937,1.26172 2.05469,-0.40235 4.125,-0.76172 6.20313,-1.10157 0.85937,-0.13672 1.41406,-0.94531 1.32422,-1.8125 -0.13282,-0.875 -0.95313,-1.46484 -1.82032,-1.32812"
       id="path128"
       style="fill:url(#linearGradient1210);fill-opacity:1" />
    <path
       d="m 826.22266,416.94531 c -2,0.76563 -3.98047,1.54297 -5.95704,2.37891 -0.60937,0.25 -0.97656,0.84375 -0.97656,1.46094 0,0.20312 0.0391,0.41796 0.12891,0.61718 0.33594,0.80469 1.26562,1.19141 2.07812,0.85157 1.9336,-0.8086 3.88282,-1.58985 5.84766,-2.32813 0.82031,-0.3125 1.25391,-1.23828 0.92578,-2.05469 -0.3125,-0.82031 -1.23047,-1.23828 -2.04687,-0.92578"
       id="path130"
       style="fill:url(#linearGradient1212);fill-opacity:1" />
    <path
       d="m 791.82422,433.88672 -5.50391,3.19531 c -0.5,0.29688 -0.78906,0.83594 -0.78906,1.38281 0,0.26563 0.0664,0.54688 0.21875,0.79297 0.44141,0.75781 1.41016,1.01172 2.17187,0.57031 l 5.49219,-3.1875 c 0.75391,-0.43359 1.02735,-1.41406 0.58594,-2.16796 -0.44141,-0.76172 -1.41406,-1.01954 -2.17578,-0.58594"
       id="path132"
       style="fill:url(#linearGradient1214);fill-opacity:1" />
    <path
       d="m 808.62109,424.67969 c -1.90234,0.96484 -3.79687,1.95312 -5.67187,2.96484 -0.53125,0.28125 -0.83594,0.83594 -0.83594,1.39844 0,0.25781 0.0547,0.51172 0.18359,0.7539 0.41797,0.77344 1.38282,1.0625 2.15235,0.65235 1.85156,-0.9961 3.72265,-1.97656 5.60156,-2.92578 0.78516,-0.39063 1.08203,-1.34766 0.70703,-2.12891 -0.40234,-0.78516 -1.35937,-1.09766 -2.13672,-0.71484"
       id="path134"
       style="fill:url(#linearGradient1216);fill-opacity:1" />
    <path
       d="m 844.52734,411.08984 c -2.05468,0.54688 -4.11718,1.125 -6.16406,1.74219 -0.6875,0.20313 -1.12891,0.83594 -1.12891,1.51953 0,0.15235 0.0234,0.30469 0.0703,0.45703 0.25,0.84375 1.13281,1.32032 1.97656,1.07032 2.01172,-0.61329 4.03516,-1.17969 6.06641,-1.71875 0.84375,-0.22657 1.3789,-1.08594 1.12109,-1.94532 -0.22266,-0.84375 -1.08984,-1.34765 -1.94141,-1.125"
       id="path136"
       style="fill:url(#linearGradient1218);fill-opacity:1" />
    <path
       d="m 682.91797,440.9375 c -0.1211,-0.86719 -0.91797,-1.47656 -1.78125,-1.36328 -2.08985,0.26953 -4.17578,0.51172 -6.26953,0.71484 -0.82032,0.0781 -1.42969,0.76953 -1.42969,1.58203 0,0.0547 0,0.10157 0,0.16016 0.0898,0.875 0.86719,1.50781 1.74219,1.42187 2.125,-0.20312 4.24609,-0.44921 6.36328,-0.72265 0.875,-0.11328 1.45312,-0.92578 1.375,-1.79297"
       id="path138"
       style="fill:url(#linearGradient1220);fill-opacity:1" />
    <path
       d="M 618.48828,427.96484 C 619,427.25 618.82422,426.25391 618.10937,425.75 c -1.71093,-1.21484 -3.41796,-2.45703 -5.10546,-3.71875 -0.70313,-0.52344 -1.69922,-0.37891 -2.22266,0.32031 -0.20703,0.28125 -0.32031,0.61719 -0.32031,0.94922 0,0.48828 0.22656,0.96094 0.64062,1.27734 1.70313,1.27735 3.4375,2.53516 5.17188,3.76563 0.71093,0.51562 1.70703,0.33594 2.21484,-0.37891"
       id="path140"
       style="fill:url(#linearGradient1222);fill-opacity:1" />
    <path
       d="m 624.54687,439.04297 c -2.09375,-0.30469 -4.16796,-0.64453 -6.23828,-1.00391 -0.85547,-0.15234 -1.6914,0.42578 -1.83593,1.29297 -0.0156,0.0977 -0.0234,0.18359 -0.0234,0.28125 0,0.75391 0.54297,1.42188 1.3164,1.56641 2.09375,0.35937 4.20313,0.69922 6.31641,1.01172 0.875,0.12109 1.67578,-0.48438 1.79688,-1.35157 0.16796,-0.875 -0.46485,-1.67578 -1.33204,-1.79687"
       id="path142"
       style="fill:url(#linearGradient1224);fill-opacity:1" />
    <path
       d="m 605.94922,435.50781 c -2.05469,-0.48828 -4.08203,-1.0039 -6.1211,-1.54297 -0.84375,-0.22265 -1.71875,0.28125 -1.9414,1.125 -0.0352,0.13672 -0.0508,0.27344 -0.0508,0.41016 0,0.70703 0.45703,1.33984 1.17968,1.54297 2.05469,0.54687 4.125,1.0664 6.20313,1.55859 0.85937,0.19922 1.71094,-0.33203 1.91016,-1.18359 0.21093,-0.85938 -0.32032,-1.70703 -1.17969,-1.91016"
       id="path144"
       style="fill:url(#linearGradient1226);fill-opacity:1" />
    <path
       d="m 650.35547,445.85156 c -1.8125,-1.03515 -3.64063,-2.08594 -5.4961,-3.17187 0,-0.0234 0,-0.0469 0.008,-0.0781 -0.0899,-0.88281 -0.61719,-1.625 -1.5,-1.67187 -2.09375,-0.1211 -4.19922,-0.26563 -6.28516,-0.44141 -0.875,-0.082 -1.64453,0.57031 -1.72656,1.44531 0,0.0391 0,0.0977 0,0.13672 0,0.82031 0.6289,1.51172 1.45312,1.58203 1.88672,0.16016 3.77344,0.29688 5.66016,0.41016 0,0.54687 0.28906,1.07422 0.78516,1.36719 1.86328,1.08203 3.70703,2.15234 5.53125,3.1875 0.76171,0.43359 1.72265,0.16797 2.15625,-0.59375 0.44921,-0.76563 0.19531,-1.73438 -0.58594,-2.17188"
       id="path146"
       style="fill:url(#linearGradient1228);fill-opacity:1" />
    <path
       d="m 658.375,336 c 0.51953,0.69922 1.51562,0.84375 2.22266,0.32031 0.69921,-0.53125 0.82812,-1.52734 0.32031,-2.22265 -1.30078,-1.73829 -2.65625,-3.42188 -4.08594,-5.04688 -0.57812,-0.65625 -1.58984,-0.72266 -2.23828,-0.14453 -0.35938,0.3125 -0.54688,0.75781 -0.54688,1.19922 0,0.36719 0.12891,0.74609 0.40235,1.05078 1.36328,1.55859 2.67187,3.17969 3.92578,4.84375"
       id="path148"
       style="fill:url(#linearGradient1230);fill-opacity:1" />
    <path
       d="m 587.74219,430.35156 c -2,-0.66015 -3.98828,-1.34765 -5.95703,-2.07031 -0.81641,-0.30859 -1.73438,0.11719 -2.03125,0.94531 -0.0703,0.17578 -0.10157,0.36328 -0.10157,0.54688 0,0.64062 0.39844,1.2539 1.04297,1.49218 2.00391,0.73438 4.01953,1.42969 6.05078,2.10547 0.83594,0.28125 1.73438,-0.17578 2.00391,-1.01172 0.28906,-0.83593 -0.16797,-1.72656 -1.00781,-2.00781"
       id="path150"
       style="fill:url(#linearGradient1232);fill-opacity:1" />
    <path
       d="m 703.53516,323.39062 c -1.83985,1.11329 -3.64454,2.375 -5.36329,3.71875 -0.39843,0.3125 -0.60937,0.78516 -0.60937,1.25 0,0.34766 0.10547,0.69141 0.32812,0.98047 0.54688,0.69922 1.54297,0.82032 2.23438,0.28125 1.63672,-1.27734 3.33594,-2.46484 5.07031,-3.52343 0.75391,-0.46875 1.00391,-1.4375 0.52344,-2.19532 -0.46094,-0.74609 -1.44531,-0.98047 -2.18359,-0.51172"
       id="path152"
       style="fill:url(#linearGradient1234);fill-opacity:1" />
    <path
       d="m 585.85547,396.03125 c -0.53906,-0.69922 -1.52735,-0.83594 -2.23047,-0.30469 -0.41016,0.3125 -0.62891,0.78516 -0.62891,1.26953 0,0.33594 0.10547,0.67188 0.32422,0.95313 1.28906,1.70312 2.64844,3.38281 4.0586,5.01953 0.57031,0.66797 1.57421,0.74219 2.23828,0.17187 0.66797,-0.57812 0.74609,-1.58203 0.17187,-2.24218 -1.375,-1.59766 -2.68359,-3.21485 -3.93359,-4.86719"
       id="path154"
       style="fill:url(#linearGradient1236);fill-opacity:1" />
    <path
       d="m 592.12109,311.91797 c -0.48828,0.25 -0.96875,0.51562 -1.46093,0.79687 -1.41797,0.82032 -2.8086,1.73438 -4.13282,2.73828 -0.41406,0.3125 -0.63281,0.78907 -0.63281,1.26954 0,0.32812 0.11328,0.66796 0.32031,0.95703 0.53125,0.70703 1.53516,0.84375 2.22266,0.3125 1.23047,-0.92578 2.50391,-1.77735 3.80469,-2.51563 0.4414,-0.25781 0.89062,-0.49609 1.33984,-0.73828 0.78906,-0.41016 1.10156,-1.36328 0.68359,-2.14453 -0.41015,-0.77734 -1.36328,-1.08203 -2.14453,-0.67578"
       id="path156"
       style="fill:url(#linearGradient1238);fill-opacity:1" />
    <path
       d="m 603.34375,416.38281 c 0.57812,-0.65625 0.49609,-1.66015 -0.16797,-2.23828 -1.58984,-1.38281 -3.15625,-2.78125 -4.67969,-4.21094 -0.63672,-0.60156 -1.64453,-0.57031 -2.25,0.0742 -0.27734,0.30469 -0.42187,0.69141 -0.42187,1.08203 0,0.42578 0.16797,0.85157 0.5039,1.15625 1.55079,1.46485 3.14454,2.90235 4.77344,4.30469 0.66797,0.57031 1.67188,0.5 2.24219,-0.16797"
       id="path158"
       style="fill:url(#linearGradient1240);fill-opacity:1" />
    <path
       d="m 700.46094,439.27344 c 0.85937,-0.21485 1.39453,-1.07422 1.17187,-1.92578 -0.21094,-0.85157 -1.0664,-1.375 -1.91797,-1.16407 -1.07812,0.25782 -2.15234,0.50391 -3.23437,0.73828 -0.97266,0.20704 -1.94141,0.41016 -2.92188,0.60157 -0.7539,0.15234 -1.27734,0.82031 -1.27734,1.55859 0,0.10547 0.0156,0.21094 0.0312,0.3125 0.17969,0.85938 1.00391,1.42188 1.87109,1.25391 0.98828,-0.19922 1.97657,-0.40235 2.96875,-0.61719 1.10157,-0.24219 2.20703,-0.49219 3.3086,-0.75781"
       id="path160"
       style="fill:url(#linearGradient1242);fill-opacity:1" />
    <path
       d="m 663.92969,442.65625 c -0.0274,-0.86719 -0.76563,-1.55859 -1.64063,-1.53516 -2.10937,0.082 -4.21094,0.1211 -6.30469,0.12891 -0.875,0.008 -1.58203,0.71484 -1.58203,1.58984 0,0 0,0.008 0,0.008 0,0.88671 0.71485,1.59375 1.58985,1.58593 2.13281,-0.0117 4.26953,-0.0508 6.40234,-0.1289 0.875,-0.0274 1.47656,-0.76563 1.53516,-1.64844"
       id="path162"
       style="fill:url(#linearGradient1244);fill-opacity:1" />
    <path
       d="m 703.66406,462.67969 c -2.07812,-0.1211 -4.16797,-0.29688 -6.23828,-0.52735 -0.875,-0.10547 -1.66016,0.51953 -1.75781,1.39453 -0.008,0.0664 -0.0156,0.1211 -0.0156,0.17969 0,0.80078 0.60157,1.48438 1.41407,1.58203 2.13281,0.23828 4.26953,0.42578 6.41015,0.55078 0.875,0.0508 1.6211,-0.61718 1.67969,-1.5 0.0469,-0.86718 -0.61719,-1.6289 -1.49219,-1.67968"
       id="path164"
       style="fill:url(#linearGradient1246);fill-opacity:1" />
    <path
       d="m 685.05859,460.0625 c -2.03906,-0.45703 -4.0664,-0.97266 -6.0664,-1.55078 -0.84375,-0.23438 -1.72657,0.25781 -1.96485,1.10156 -0.043,0.14453 -0.0664,0.28906 -0.0664,0.43359 0,0.69141 0.45703,1.33204 1.15625,1.53516 2.07031,0.58594 4.14843,1.11328 6.24218,1.58203 0.85938,0.19922 1.71094,-0.34765 1.90235,-1.19922 0.17187,-0.85937 -0.35156,-1.70312 -1.20313,-1.90234"
       id="path166"
       style="fill:url(#linearGradient1248);fill-opacity:1" />
    <path
       d="m 688.74219,336.04687 c -1.42578,1.625 -2.80078,3.28516 -4.11719,4.98829 -0.22266,0.28906 -0.32813,0.6289 -0.32813,0.97265 0,0.47266 0.20704,0.9375 0.61719,1.26172 0.69922,0.52734 1.69531,0.41016 2.23047,-0.28906 1.26953,-1.64844 2.58594,-3.25391 3.97266,-4.82031 0.59375,-0.65235 0.53125,-1.66407 -0.12891,-2.24219 -0.65625,-0.58594 -1.66797,-0.52735 -2.24609,0.1289"
       id="path168"
       style="fill:url(#linearGradient1250);fill-opacity:1" />
    <path
       d="m 667.14453,454.41406 c -1.92578,-0.79297 -3.83594,-1.64453 -5.71094,-2.54297 -0.79687,-0.38672 -1.74218,-0.0508 -2.1289,0.73828 -0.10547,0.22266 -0.15235,0.45704 -0.15235,0.69141 0,0.59375 0.32813,1.16406 0.89844,1.42969 1.92578,0.9375 3.90234,1.80469 5.89063,2.63281 0.8125,0.32813 1.74218,-0.0547 2.07031,-0.86719 0.33203,-0.82031 -0.0547,-1.74218 -0.86719,-2.08203"
       id="path170"
       style="fill:url(#linearGradient1252);fill-opacity:1" />
    <path
       d="m 576.375,380 c -0.34375,-0.8125 -1.27344,-1.19141 -2.08594,-0.83594 -0.60156,0.25781 -0.96094,0.84375 -0.96094,1.45313 0,0.21093 0.0469,0.42578 0.12891,0.625 0.83984,1.96093 1.78906,3.92187 2.83203,5.84765 0.41797,0.77344 1.37891,1.0625 2.14844,0.64453 0.78906,-0.42578 1.07812,-1.38281 0.64453,-2.16015 -0.99609,-1.83985 -1.90234,-3.71875 -2.70703,-5.57422"
       id="path172"
       style="fill:url(#linearGradient1254);fill-opacity:1" />
    <path
       d="m 667.94141,344.91406 c -0.42579,-0.76172 -1.40625,-1.02734 -2.16797,-0.59375 -0.51172,0.29688 -0.80078,0.83594 -0.80078,1.38281 0,0.27344 0.0703,0.54688 0.20703,0.79297 1.03515,1.81641 2.01562,3.66407 2.94531,5.53516 0.39453,0.78906 1.34766,1.10156 2.13672,0.71484 0.78515,-0.39453 1.09765,-1.34765 0.70312,-2.13672 -0.95312,-1.91796 -1.95703,-3.82421 -3.02343,-5.69531"
       id="path174"
       style="fill:url(#linearGradient1256);fill-opacity:1" />
  </g>
</svg>
