<?xml version="1.0" encoding="UTF-8" standalone="no"?>
<svg
   xmlns:dc="http://purl.org/dc/elements/1.1/"
   xmlns:cc="http://creativecommons.org/ns#"
   xmlns:rdf="http://www.w3.org/1999/02/22-rdf-syntax-ns#"
   xmlns:svg="http://www.w3.org/2000/svg"
   xmlns="http://www.w3.org/2000/svg"
   xmlns:sodipodi="http://sodipodi.sourceforge.net/DTD/sodipodi-0.dtd"
   xmlns:inkscape="http://www.inkscape.org/namespaces/inkscape"
   width="38.361759mm"
   height="44.762127mm"
   viewBox="0 0 38.361759 44.762127"
   version="1.1"
   id="svg8"
   inkscape:version="1.0.2-2 (e86c870879, 2021-01-15)"
   sodipodi:docname="iconeHT.svg">
  <defs
     id="defs2">
    <clipPath
       clipPathUnits="userSpaceOnUse"
       id="clipPath849">
      <path
         d="M 0,250 H 250 V 500 H 0 Z"
         id="path847" />
    </clipPath>
    <linearGradient
       x1="0"
       y1="0"
       x2="1"
       y2="0"
       gradientUnits="userSpaceOnUse"
       gradientTransform="matrix(250,-250,-250,-250,0,500)"
       spreadMethod="pad"
       id="linearGradient859">
      <stop
         style="stop-opacity:1;stop-color:#ff3eff"
         offset="0"
         id="stop855" />
      <stop
         style="stop-opacity:1;stop-color:#7519ff"
         offset="1"
         id="stop857" />
    </linearGradient>
    <clipPath
       clipPathUnits="userSpaceOnUse"
       id="clipPath869">
      <path
         d="M 250,0 H 500 V 250 H 250 Z"
         id="path867" />
    </clipPath>
    <linearGradient
       x1="0"
       y1="0"
       x2="1"
       y2="0"
       gradientUnits="userSpaceOnUse"
       gradientTransform="matrix(250,-250,-250,-250,250,250)"
       spreadMethod="pad"
       id="linearGradient879">
      <stop
         style="stop-opacity:1;stop-color:#ff3eff"
         offset="0"
         id="stop875" />
      <stop
         style="stop-opacity:1;stop-color:#7519ff"
         offset="1"
         id="stop877" />
    </linearGradient>
    <clipPath
       clipPathUnits="userSpaceOnUse"
       id="clipPath901">
      <path
         d="M 0,500 H 500 V 0 H 0 Z"
         id="path899" />
    </clipPath>
    <clipPath
       clipPathUnits="userSpaceOnUse"
       id="clipPath941">
      <path
         d="m 386.176,432.013 c 12.818,-4.558 22.001,-16.788 22.001,-31.17 v 0 c 0,-11.418 -5.787,-21.48 -14.587,-27.423 v 0 c -4.13,-2.788 -9.702,0.284 -9.702,5.267 v 0 8.401 h -17.776 v -8.263 c 0,-5.017 -5.638,-8.075 -9.77,-5.227 v 0 c -8.946,6.166 -14.708,16.62 -14.307,28.4 v 0 c 0.467,13.708 9.455,25.408 21.789,29.926 v 0 6.974 c -16.428,-4.858 -28.417,-20.052 -28.417,-38.055 v 0 c 0,-21.618 20.567,-50.068 32.091,-64.31 v 0 c 3.916,-4.84 11.307,-4.856 15.24,-0.03 v 0 c 11.532,14.143 32.047,42.389 32.047,64.34 v 0 c 0,18.073 -12.084,33.313 -28.609,38.11 v 0 z"
         id="path939" />
    </clipPath>
    <linearGradient
       x1="0"
       y1="0"
       x2="1"
       y2="0"
       gradientUnits="userSpaceOnUse"
       gradientTransform="matrix(98.675674,-98.675674,-98.675674,-98.675674,330.24649,437.75894)"
       spreadMethod="pad"
       id="linearGradient951">
      <stop
         style="stop-opacity:1;stop-color:#ff3eff"
         offset="0"
         id="stop947" />
      <stop
         style="stop-opacity:1;stop-color:#7519ff"
         offset="1"
         id="stop949" />
    </linearGradient>
    <clipPath
       clipPathUnits="userSpaceOnUse"
       id="clipPath961">
      <path
         d="m 370.087,456.613 c -1.3,-2.442 -2.294,-5.067 -2.962,-7.797 v 0 c -0.669,-2.728 -1.013,-5.563 -1.013,-8.425 v 0 -91.141 l 4.676,-6.308 c 0.584,-1.834 2.287,-3.08 4.212,-3.08 v 0 c 1.924,0 3.628,1.246 4.212,3.08 v 0 l 4.676,6.308 v 91.141 c 0,2.862 -0.344,5.697 -1.013,8.425 v 0 c -0.668,2.73 -1.662,5.355 -2.962,7.797 v 0 c -1.122,2.109 -3.017,3.165 -4.913,3.165 v 0 c -1.895,0 -3.791,-1.056 -4.913,-3.165"
         id="path959" />
    </clipPath>
    <linearGradient
       x1="0"
       y1="0"
       x2="1"
       y2="0"
       gradientUnits="userSpaceOnUse"
       gradientTransform="matrix(98.675674,-98.675674,-98.675674,-98.675674,333.7373,441.24973)"
       spreadMethod="pad"
       id="linearGradient971">
      <stop
         style="stop-opacity:1;stop-color:#ff3eff"
         offset="0"
         id="stop967" />
      <stop
         style="stop-opacity:1;stop-color:#7519ff"
         offset="1"
         id="stop969" />
    </linearGradient>
    <clipPath
       clipPathUnits="userSpaceOnUse"
       id="clipPath981">
      <path
         d="m 381.431,398.338 47.94,-14.544 v 3.448 c 0,2.24 -1.045,4.353 -2.825,5.713 v 0 l -45.115,34.471 z"
         id="path979" />
    </clipPath>
    <linearGradient
       x1="0"
       y1="0"
       x2="1"
       y2="0"
       gradientUnits="userSpaceOnUse"
       gradientTransform="matrix(98.675674,-98.675674,-98.675674,-98.675674,346.08371,453.59613)"
       spreadMethod="pad"
       id="linearGradient991">
      <stop
         style="stop-opacity:1;stop-color:#ff3eff"
         offset="0"
         id="stop987" />
      <stop
         style="stop-opacity:1;stop-color:#7519ff"
         offset="1"
         id="stop989" />
    </linearGradient>
    <clipPath
       clipPathUnits="userSpaceOnUse"
       id="clipPath1001">
      <path
         d="m 323.454,392.955 c -1.781,-1.36 -2.825,-3.473 -2.825,-5.713 v 0 -3.448 l 47.94,14.544 v 29.088 z"
         id="path999" />
    </clipPath>
    <linearGradient
       x1="0"
       y1="0"
       x2="1"
       y2="0"
       gradientUnits="userSpaceOnUse"
       gradientTransform="matrix(98.675674,-98.675674,-98.675674,-98.675674,321.34857,428.86099)"
       spreadMethod="pad"
       id="linearGradient1011">
      <stop
         style="stop-opacity:1;stop-color:#ff3eff"
         offset="0"
         id="stop1007" />
      <stop
         style="stop-opacity:1;stop-color:#7519ff"
         offset="1"
         id="stop1009" />
    </linearGradient>
    <clipPath
       clipPathUnits="userSpaceOnUse"
       id="clipPath1021">
      <path
         d="m 325.677,398.427 v -5.573 c 0,-1.69 1.369,-3.06 3.06,-3.06 v 0 c 1.689,0 3.059,1.37 3.059,3.06 v 0 5.573 c 0,1.69 -1.37,3.059 -3.059,3.059 v 0 c -1.691,0 -3.06,-1.369 -3.06,-3.059"
         id="path1019" />
    </clipPath>
    <linearGradient
       x1="0"
       y1="0"
       x2="1"
       y2="0"
       gradientUnits="userSpaceOnUse"
       gradientTransform="matrix(98.675674,-98.675674,-98.675674,-98.675674,308.43246,415.94489)"
       spreadMethod="pad"
       id="linearGradient1031">
      <stop
         style="stop-opacity:1;stop-color:#ff3eff"
         offset="0"
         id="stop1027" />
      <stop
         style="stop-opacity:1;stop-color:#7519ff"
         offset="1"
         id="stop1029" />
    </linearGradient>
    <clipPath
       clipPathUnits="userSpaceOnUse"
       id="clipPath1041">
      <path
         d="m 418.204,398.427 v -5.573 c 0,-1.69 1.371,-3.06 3.06,-3.06 v 0 c 1.689,0 3.059,1.37 3.059,3.06 v 0 5.573 c 0,1.69 -1.37,3.059 -3.059,3.059 v 0 c -1.689,0 -3.06,-1.369 -3.06,-3.059"
         id="path1039" />
    </clipPath>
    <linearGradient
       x1="0"
       y1="0"
       x2="1"
       y2="0"
       gradientUnits="userSpaceOnUse"
       gradientTransform="matrix(98.675674,-98.675674,-98.675674,-98.675674,354.69608,462.2085)"
       spreadMethod="pad"
       id="linearGradient1051">
      <stop
         style="stop-opacity:1;stop-color:#ff3eff"
         offset="0"
         id="stop1047" />
      <stop
         style="stop-opacity:1;stop-color:#7519ff"
         offset="1"
         id="stop1049" />
    </linearGradient>
    <clipPath
       clipPathUnits="userSpaceOnUse"
       id="clipPath1061">
      <path
         d="m 351.828,418.064 v -5.573 c 0,-1.69 1.369,-3.06 3.059,-3.06 v 0 c 1.69,0 3.059,1.37 3.059,3.06 v 0 5.573 c 0,1.69 -1.369,3.059 -3.059,3.059 v 0 c -1.69,0 -3.059,-1.369 -3.059,-3.059"
         id="path1059" />
    </clipPath>
    <linearGradient
       x1="0"
       y1="0"
       x2="1"
       y2="0"
       gradientUnits="userSpaceOnUse"
       gradientTransform="matrix(98.675674,-98.675674,-98.675674,-98.675674,331.32596,438.83841)"
       spreadMethod="pad"
       id="linearGradient1071">
      <stop
         style="stop-opacity:1;stop-color:#ff3eff"
         offset="0"
         id="stop1067" />
      <stop
         style="stop-opacity:1;stop-color:#7519ff"
         offset="1"
         id="stop1069" />
    </linearGradient>
    <clipPath
       clipPathUnits="userSpaceOnUse"
       id="clipPath1081">
      <path
         d="m 392.053,418.064 v -5.573 c 0,-1.69 1.369,-3.06 3.06,-3.06 v 0 c 1.69,0 3.059,1.37 3.059,3.06 v 0 5.573 c 0,1.69 -1.369,3.059 -3.059,3.059 v 0 c -1.691,0 -3.06,-1.369 -3.06,-3.059"
         id="path1079" />
    </clipPath>
    <linearGradient
       x1="0"
       y1="0"
       x2="1"
       y2="0"
       gradientUnits="userSpaceOnUse"
       gradientTransform="matrix(98.675674,-98.675674,-98.675674,-98.675674,351.43881,458.95123)"
       spreadMethod="pad"
       id="linearGradient1091">
      <stop
         style="stop-opacity:1;stop-color:#ff3eff"
         offset="0"
         id="stop1087" />
      <stop
         style="stop-opacity:1;stop-color:#7519ff"
         offset="1"
         id="stop1089" />
    </linearGradient>
    <clipPath
       clipPathUnits="userSpaceOnUse"
       id="clipPath1117">
      <path
         d="M 0,500 H 500 V 0 H 0 Z"
         id="path1115" />
    </clipPath>
    <clipPath
       clipPathUnits="userSpaceOnUse"
       id="clipPath1157">
      <path
         d="m 56.906,129.574 c 0,-13.3 3.828,-25.701 10.421,-36.187 v 0 c 1.163,8.371 8.329,14.821 17.02,14.821 v 0 c 2.327,0 4.543,-0.468 6.567,-1.306 v 0 c 1.033,4.928 5.4,8.629 10.634,8.629 v 0 c 2.783,0 5.313,-1.055 7.235,-2.774 v 0 c 3.032,11.658 13.628,20.265 26.235,20.265 v 0 c 14.328,0 26.051,-11.12 27.032,-25.198 v 0 c 1.163,0.247 2.367,0.384 3.603,0.384 v 0 c 8.69,0 15.857,-6.45 17.02,-14.821 v 0 c 6.593,10.486 10.421,22.887 10.421,36.187 v 0 c 0,37.607 -30.487,68.094 -68.094,68.094 v 0 c -37.607,0 -68.094,-30.487 -68.094,-68.094 m 46.821,20.745 -34.144,4.171 10.062,5.24 c 1.443,0.753 3.027,1.194 4.651,1.298 v 0 l 43.149,2.759 19.59,11.094 c 4.689,2.655 10.162,3.577 15.461,2.605 v 0 l 2.751,-0.504 c 1.656,-0.303 2.072,-2.487 0.643,-3.377 v 0 l -37.111,-22.688 -10.506,-14.88 c -1.488,-2.107 -3.632,-3.663 -6.097,-4.424 v 0 l -6.103,-1.884 4.17,10.096 -24.005,-11.149 c -3.447,-1.898 -7.097,-3.402 -10.881,-4.482 v 0 c -1.557,-0.445 -2.801,1.326 -1.852,2.64 v 0 l 4.634,6.424 -7.443,3.02 7.606,4.832 8.744,-0.503 z"
         id="path1155" />
    </clipPath>
    <linearGradient
       x1="0"
       y1="0"
       x2="1"
       y2="0"
       gradientUnits="userSpaceOnUse"
       gradientTransform="matrix(95.079941,-95.079941,-95.079941,-95.079941,77.46003,178.33398)"
       spreadMethod="pad"
       id="linearGradient1167">
      <stop
         style="stop-opacity:1;stop-color:#ff3eff"
         offset="0"
         id="stop1163" />
      <stop
         style="stop-opacity:1;stop-color:#7519ff"
         offset="1"
         id="stop1165" />
    </linearGradient>
  </defs>
  <sodipodi:namedview
     id="base"
     pagecolor="#ffffff"
     bordercolor="#666666"
     borderopacity="1.0"
     inkscape:pageopacity="0.0"
     inkscape:pageshadow="2"
     inkscape:zoom="0.35"
     inkscape:cx="80.113715"
     inkscape:cy="128.2754"
     inkscape:document-units="mm"
     inkscape:current-layer="layer1"
     inkscape:document-rotation="0"
     showgrid="false"
     fit-margin-top="0"
     fit-margin-left="0"
     fit-margin-right="0"
     fit-margin-bottom="0"
     inkscape:window-width="1758"
     inkscape:window-height="1030"
     inkscape:window-x="128"
     inkscape:window-y="0"
     inkscape:window-maximized="0" />
  <metadata
     id="metadata5">
    <rdf:RDF>
      <cc:Work
         rdf:about="">
        <dc:format>image/svg+xml</dc:format>
        <dc:type
           rdf:resource="http://purl.org/dc/dcmitype/StillImage" />
        <dc:title></dc:title>
      </cc:Work>
    </rdf:RDF>
  </metadata>
  <g
     inkscape:label="Layer 1"
     inkscape:groupmode="layer"
     id="layer1"
     transform="translate(-84.63658,-114.22713)">
    <g
       id="g2197">
      <g
         id="g945"
         transform="matrix(0.35277777,0,0,-0.35277777,-28.474204,276.42659)">
        <path
           d="m 386.176,432.013 c 12.818,-4.558 22.001,-16.788 22.001,-31.17 v 0 c 0,-11.418 -5.787,-21.48 -14.587,-27.423 v 0 c -4.13,-2.788 -9.702,0.284 -9.702,5.267 v 0 8.401 h -17.776 v -8.263 c 0,-5.017 -5.638,-8.075 -9.77,-5.227 v 0 c -8.946,6.166 -14.708,16.62 -14.307,28.4 v 0 c 0.467,13.708 9.455,25.408 21.789,29.926 v 0 6.974 c -16.428,-4.858 -28.417,-20.052 -28.417,-38.055 v 0 c 0,-21.618 20.567,-50.068 32.091,-64.31 v 0 c 3.916,-4.84 11.307,-4.856 15.24,-0.03 v 0 c 11.532,14.143 32.047,42.389 32.047,64.34 v 0 c 0,18.073 -12.084,33.313 -28.609,38.11 v 0 z"
           style="fill:url(#linearGradient951);stroke:none"
           id="path953" />
      </g>
      <g
         id="g965"
         transform="matrix(0.35277777,0,0,-0.35277777,-28.474204,276.42659)">
        <path
           d="m 370.087,456.613 c -1.3,-2.442 -2.294,-5.067 -2.962,-7.797 v 0 c -0.669,-2.728 -1.013,-5.563 -1.013,-8.425 v 0 -91.141 l 4.676,-6.308 c 0.584,-1.834 2.287,-3.08 4.212,-3.08 v 0 c 1.924,0 3.628,1.246 4.212,3.08 v 0 l 4.676,6.308 v 91.141 c 0,2.862 -0.344,5.697 -1.013,8.425 v 0 c -0.668,2.73 -1.662,5.355 -2.962,7.797 v 0 c -1.122,2.109 -3.017,3.165 -4.913,3.165 v 0 c -1.895,0 -3.791,-1.056 -4.913,-3.165"
           style="fill:url(#linearGradient971);stroke:none"
           id="path973" />
      </g>
      <g
         id="g985"
         transform="matrix(0.35277777,0,0,-0.35277777,-28.474204,276.42659)">
        <path
           d="m 381.431,398.338 47.94,-14.544 v 3.448 c 0,2.24 -1.045,4.353 -2.825,5.713 v 0 l -45.115,34.471 z"
           style="fill:url(#linearGradient991);stroke:none"
           id="path993" />
      </g>
      <g
         id="g1005"
         transform="matrix(0.35277777,0,0,-0.35277777,-28.474204,276.42659)">
        <path
           d="m 323.454,392.955 c -1.781,-1.36 -2.825,-3.473 -2.825,-5.713 v 0 -3.448 l 47.94,14.544 v 29.088 z"
           style="fill:url(#linearGradient1011);stroke:none"
           id="path1013" />
      </g>
      <g
         id="g1025"
         transform="matrix(0.35277777,0,0,-0.35277777,-28.474204,276.42659)">
        <path
           d="m 325.677,398.427 v -5.573 c 0,-1.69 1.369,-3.06 3.06,-3.06 v 0 c 1.689,0 3.059,1.37 3.059,3.06 v 0 5.573 c 0,1.69 -1.37,3.059 -3.059,3.059 v 0 c -1.691,0 -3.06,-1.369 -3.06,-3.059"
           style="fill:url(#linearGradient1031);stroke:none"
           id="path1033" />
      </g>
      <g
         id="g1045"
         transform="matrix(0.35277777,0,0,-0.35277777,-28.474204,276.42659)">
        <path
           d="m 418.204,398.427 v -5.573 c 0,-1.69 1.371,-3.06 3.06,-3.06 v 0 c 1.689,0 3.059,1.37 3.059,3.06 v 0 5.573 c 0,1.69 -1.37,3.059 -3.059,3.059 v 0 c -1.689,0 -3.06,-1.369 -3.06,-3.059"
           style="fill:url(#linearGradient1051);stroke:none"
           id="path1053" />
      </g>
      <g
         id="g1065"
         transform="matrix(0.35277777,0,0,-0.35277777,-28.474204,276.42659)">
        <path
           d="m 351.828,418.064 v -5.573 c 0,-1.69 1.369,-3.06 3.059,-3.06 v 0 c 1.69,0 3.059,1.37 3.059,3.06 v 0 5.573 c 0,1.69 -1.369,3.059 -3.059,3.059 v 0 c -1.69,0 -3.059,-1.369 -3.059,-3.059"
           style="fill:url(#linearGradient1071);stroke:none"
           id="path1073" />
      </g>
      <g
         id="g1085"
         transform="matrix(0.35277777,0,0,-0.35277777,-28.474204,276.42659)">
        <path
           d="m 392.053,418.064 v -5.573 c 0,-1.69 1.369,-3.06 3.06,-3.06 v 0 c 1.69,0 3.059,1.37 3.059,3.06 v 0 5.573 c 0,1.69 -1.369,3.059 -3.059,3.059 v 0 c -1.691,0 -3.06,-1.369 -3.06,-3.059"
           style="fill:url(#linearGradient1091);stroke:none"
           id="path1093" />
      </g>
    </g>
  </g>
</svg>
