<?xml version="1.0" encoding="UTF-8" standalone="no"?>
<svg
   xmlns:dc="http://purl.org/dc/elements/1.1/"
   xmlns:cc="http://creativecommons.org/ns#"
   xmlns:rdf="http://www.w3.org/1999/02/22-rdf-syntax-ns#"
   xmlns:svg="http://www.w3.org/2000/svg"
   xmlns="http://www.w3.org/2000/svg"
   xmlns:xlink="http://www.w3.org/1999/xlink"
   xmlns:sodipodi="http://sodipodi.sourceforge.net/DTD/sodipodi-0.dtd"
   xmlns:inkscape="http://www.inkscape.org/namespaces/inkscape"
   width="16mm"
   height="16mm"
   viewBox="0 0 16 16"
   version="1.1"
   id="svg8"
   inkscape:version="1.0.2-2 (e86c870879, 2021-01-15)"
   sodipodi:docname="iconHead.svg">
  <defs
     id="defs2">
    <clipPath
       clipPathUnits="userSpaceOnUse"
       id="clipPath346">
      <path
         d="m 56.906,129.574 c 0,-13.3 3.828,-25.701 10.421,-36.187 v 0 c 1.163,8.371 8.329,14.821 17.02,14.821 v 0 c 2.327,0 4.543,-0.468 6.567,-1.306 v 0 c 1.033,4.928 5.4,8.629 10.634,8.629 v 0 c 2.783,0 5.313,-1.055 7.235,-2.774 v 0 c 3.032,11.658 13.628,20.265 26.235,20.265 v 0 c 14.328,0 26.051,-11.12 27.032,-25.198 v 0 c 1.163,0.247 2.367,0.384 3.603,0.384 v 0 c 8.69,0 15.857,-6.45 17.02,-14.821 v 0 c 6.593,10.486 10.421,22.887 10.421,36.187 v 0 c 0,37.607 -30.487,68.094 -68.094,68.094 v 0 c -37.607,0 -68.094,-30.487 -68.094,-68.094 m 46.821,20.745 -34.144,4.171 10.062,5.24 c 1.443,0.753 3.027,1.194 4.651,1.298 v 0 l 43.149,2.759 19.59,11.094 c 4.689,2.655 10.162,3.577 15.461,2.605 v 0 l 2.751,-0.504 c 1.656,-0.303 2.072,-2.487 0.643,-3.377 v 0 l -37.111,-22.688 -10.506,-14.88 c -1.488,-2.107 -3.632,-3.663 -6.097,-4.424 v 0 l -6.103,-1.884 4.17,10.096 -24.005,-11.149 c -3.447,-1.898 -7.097,-3.402 -10.881,-4.482 v 0 c -1.557,-0.445 -2.801,1.326 -1.852,2.64 v 0 l 4.634,6.424 -7.443,3.02 7.606,4.832 8.744,-0.503 z"
         id="path344" />
    </clipPath>
    <linearGradient
       inkscape:collect="always"
       xlink:href="#linearGradient356"
       id="linearGradient1420"
       gradientUnits="userSpaceOnUse"
       gradientTransform="matrix(95.079941,-95.079941,-95.079941,-95.079941,77.46003,178.33398)"
       x1="0"
       y1="0"
       x2="1"
       y2="0"
       spreadMethod="pad" />
    <linearGradient
       x1="0"
       y1="0"
       x2="1"
       y2="0"
       gradientUnits="userSpaceOnUse"
       gradientTransform="matrix(95.079941,-95.079941,-95.079941,-95.079941,77.46003,178.33398)"
       spreadMethod="pad"
       id="linearGradient356">
      <stop
         style="stop-opacity:1;stop-color:#ff3eff"
         offset="0"
         id="stop352" />
      <stop
         style="stop-opacity:1;stop-color:#7519ff"
         offset="1"
         id="stop354" />
    </linearGradient>
  </defs>
  <sodipodi:namedview
     id="base"
     pagecolor="#ffffff"
     bordercolor="#666666"
     borderopacity="1.0"
     inkscape:pageopacity="0.0"
     inkscape:pageshadow="2"
     inkscape:zoom="3.959798"
     inkscape:cx="38.179832"
     inkscape:cy="61.508708"
     inkscape:document-units="mm"
     inkscape:current-layer="layer1"
     inkscape:document-rotation="0"
     showgrid="false"
     fit-margin-top="0"
     fit-margin-left="0"
     fit-margin-right="0"
     fit-margin-bottom="0"
     inkscape:window-width="1758"
     inkscape:window-height="1030"
     inkscape:window-x="96"
     inkscape:window-y="0"
     inkscape:window-maximized="0" />
  <metadata
     id="metadata5">
    <rdf:RDF>
      <cc:Work
         rdf:about="">
        <dc:format>image/svg+xml</dc:format>
        <dc:type
           rdf:resource="http://purl.org/dc/dcmitype/StillImage" />
        <dc:title></dc:title>
      </cc:Work>
    </rdf:RDF>
  </metadata>
  <g
     inkscape:label="Layer 1"
     inkscape:groupmode="layer"
     id="layer1"
     transform="translate(-22.085935,-15.282364)">
    <g
       id="g1502">
      <g
         id="g1404"
         transform="matrix(0.11748465,0,0,-0.11748465,15.400354,40.379611)">
        <g
           id="g1402"
           clip-path="url(#clipPath346)">
          <g
             id="g1400">
            <g
               id="g1398">
              <path
                 d="m 56.906,129.574 c 0,-13.3 3.828,-25.701 10.421,-36.187 v 0 c 1.163,8.371 8.329,14.821 17.02,14.821 v 0 c 2.327,0 4.543,-0.468 6.567,-1.306 v 0 c 1.033,4.928 5.4,8.629 10.634,8.629 v 0 c 2.783,0 5.313,-1.055 7.235,-2.774 v 0 c 3.032,11.658 13.628,20.265 26.235,20.265 v 0 c 14.328,0 26.051,-11.12 27.032,-25.198 v 0 c 1.163,0.247 2.367,0.384 3.603,0.384 v 0 c 8.69,0 15.857,-6.45 17.02,-14.821 v 0 c 6.593,10.486 10.421,22.887 10.421,36.187 v 0 c 0,37.607 -30.487,68.094 -68.094,68.094 v 0 c -37.607,0 -68.094,-30.487 -68.094,-68.094 m 46.821,20.745 -34.144,4.171 10.062,5.24 c 1.443,0.753 3.027,1.194 4.651,1.298 v 0 l 43.149,2.759 19.59,11.094 c 4.689,2.655 10.162,3.577 15.461,2.605 v 0 l 2.751,-0.504 c 1.656,-0.303 2.072,-2.487 0.643,-3.377 v 0 l -37.111,-22.688 -10.506,-14.88 c -1.488,-2.107 -3.632,-3.663 -6.097,-4.424 v 0 l -6.103,-1.884 4.17,10.096 -24.005,-11.149 c -3.447,-1.898 -7.097,-3.402 -10.881,-4.482 v 0 c -1.557,-0.445 -2.801,1.326 -1.852,2.64 v 0 l 4.634,6.424 -7.443,3.02 7.606,4.832 8.744,-0.503 z"
                 style="fill:url(#linearGradient1420);stroke:none"
                 id="path1396" />
            </g>
          </g>
        </g>
      </g>
      <rect
         style="fill:none;stroke:none;stroke-width:1.44664;stroke-linecap:round;stroke-opacity:0.704961"
         id="rect1494"
         width="16"
         height="16"
         x="22.085936"
         y="15.282364" />
    </g>
  </g>
</svg>
