<?xml version="1.0" encoding="UTF-8" standalone="no"?>
<svg
   xmlns:dc="http://purl.org/dc/elements/1.1/"
   xmlns:cc="http://creativecommons.org/ns#"
   xmlns:rdf="http://www.w3.org/1999/02/22-rdf-syntax-ns#"
   xmlns:svg="http://www.w3.org/2000/svg"
   xmlns="http://www.w3.org/2000/svg"
   xmlns:xlink="http://www.w3.org/1999/xlink"
   xmlns:sodipodi="http://sodipodi.sourceforge.net/DTD/sodipodi-0.dtd"
   xmlns:inkscape="http://www.inkscape.org/namespaces/inkscape"
   width="288.94312mm"
   height="66.145836mm"
   viewBox="0 0 288.94311 66.145836"
   version="1.1"
   id="svg1444"
   inkscape:version="1.0.2-2 (e86c870879, 2021-01-15)"
   sodipodi:docname="LogoSGV.svg"
   inkscape:export-filename="D:\thay_\Documents\Recode Pro\Modulo3_Desenvolvimento de sistemas 1\AtivPraticaMod3_Thayná\HabeckTurismo_FrontEnd1\imagens\Logo_HT.png"
   inkscape:export-xdpi="1000"
   inkscape:export-ydpi="1000">
  <defs
     id="defs1438">
    <clipPath
       clipPathUnits="userSpaceOnUse"
       id="clipPath346">
      <path
         d="m 56.906,129.574 c 0,-13.3 3.828,-25.701 10.421,-36.187 v 0 c 1.163,8.371 8.329,14.821 17.02,14.821 v 0 c 2.327,0 4.543,-0.468 6.567,-1.306 v 0 c 1.033,4.928 5.4,8.629 10.634,8.629 v 0 c 2.783,0 5.313,-1.055 7.235,-2.774 v 0 c 3.032,11.658 13.628,20.265 26.235,20.265 v 0 c 14.328,0 26.051,-11.12 27.032,-25.198 v 0 c 1.163,0.247 2.367,0.384 3.603,0.384 v 0 c 8.69,0 15.857,-6.45 17.02,-14.821 v 0 c 6.593,10.486 10.421,22.887 10.421,36.187 v 0 c 0,37.607 -30.487,68.094 -68.094,68.094 v 0 c -37.607,0 -68.094,-30.487 -68.094,-68.094 m 46.821,20.745 -34.144,4.171 10.062,5.24 c 1.443,0.753 3.027,1.194 4.651,1.298 v 0 l 43.149,2.759 19.59,11.094 c 4.689,2.655 10.162,3.577 15.461,2.605 v 0 l 2.751,-0.504 c 1.656,-0.303 2.072,-2.487 0.643,-3.377 v 0 l -37.111,-22.688 -10.506,-14.88 c -1.488,-2.107 -3.632,-3.663 -6.097,-4.424 v 0 l -6.103,-1.884 4.17,10.096 -24.005,-11.149 c -3.447,-1.898 -7.097,-3.402 -10.881,-4.482 v 0 c -1.557,-0.445 -2.801,1.326 -1.852,2.64 v 0 l 4.634,6.424 -7.443,3.02 7.606,4.832 8.744,-0.503 z"
         id="path344" />
    </clipPath>
    <linearGradient
       inkscape:collect="always"
       xlink:href="#linearGradient356"
       id="linearGradient1420"
       gradientUnits="userSpaceOnUse"
       gradientTransform="matrix(95.079941,-95.079941,-95.079941,-95.079941,77.46003,178.33398)"
       x1="0"
       y1="0"
       x2="1"
       y2="0"
       spreadMethod="pad" />
    <linearGradient
       x1="0"
       y1="0"
       x2="1"
       y2="0"
       gradientUnits="userSpaceOnUse"
       gradientTransform="matrix(95.079941,-95.079941,-95.079941,-95.079941,77.46003,178.33398)"
       spreadMethod="pad"
       id="linearGradient356">
      <stop
         style="stop-opacity:1;stop-color:#ff3eff"
         offset="0"
         id="stop352" />
      <stop
         style="stop-opacity:1;stop-color:#7519ff"
         offset="1"
         id="stop354" />
    </linearGradient>
  </defs>
  <sodipodi:namedview
     id="base"
     pagecolor="#ffffff"
     bordercolor="#666666"
     borderopacity="1.0"
     inkscape:pageopacity="0.0"
     inkscape:pageshadow="2"
     inkscape:zoom="0.70000001"
     inkscape:cx="654.40184"
     inkscape:cy="203.13361"
     inkscape:document-units="mm"
     inkscape:current-layer="g1418"
     inkscape:document-rotation="0"
     showgrid="false"
     fit-margin-top="0"
     fit-margin-left="0"
     fit-margin-right="0"
     fit-margin-bottom="0"
     inkscape:window-width="1758"
     inkscape:window-height="1030"
     inkscape:window-x="144"
     inkscape:window-y="0"
     inkscape:window-maximized="0" />
  <metadata
     id="metadata1441">
    <rdf:RDF>
      <cc:Work
         rdf:about="">
        <dc:format>image/svg+xml</dc:format>
        <dc:type
           rdf:resource="http://purl.org/dc/dcmitype/StillImage" />
        <dc:title></dc:title>
      </cc:Work>
    </rdf:RDF>
  </metadata>
  <g
     inkscape:label="Layer 1"
     inkscape:groupmode="layer"
     id="layer1"
     transform="translate(-63.926393,-86.199087)">
    <path
       d="M 61.736113,174.23341 H 149.93055 V 86.038979 H 61.736113 Z"
       style="fill:none;fill-opacity:1;fill-rule:nonzero;stroke:none;stroke-width:0.352778"
       id="path1390" />
    <g
       id="g1418"
       transform="matrix(0.65051812,0,0,-0.65051812,22.429066,202.86538)">
      <g
         id="g1404"
         transform="matrix(0.97507715,0,0,0.97507715,8.3034503,-13.397911)">
        <g
           id="g1402"
           clip-path="url(#clipPath346)">
          <g
             id="g1400">
            <g
               id="g1398">
              <path
                 d="m 56.906,129.574 c 0,-13.3 3.828,-25.701 10.421,-36.187 v 0 c 1.163,8.371 8.329,14.821 17.02,14.821 v 0 c 2.327,0 4.543,-0.468 6.567,-1.306 v 0 c 1.033,4.928 5.4,8.629 10.634,8.629 v 0 c 2.783,0 5.313,-1.055 7.235,-2.774 v 0 c 3.032,11.658 13.628,20.265 26.235,20.265 v 0 c 14.328,0 26.051,-11.12 27.032,-25.198 v 0 c 1.163,0.247 2.367,0.384 3.603,0.384 v 0 c 8.69,0 15.857,-6.45 17.02,-14.821 v 0 c 6.593,10.486 10.421,22.887 10.421,36.187 v 0 c 0,37.607 -30.487,68.094 -68.094,68.094 v 0 c -37.607,0 -68.094,-30.487 -68.094,-68.094 m 46.821,20.745 -34.144,4.171 10.062,5.24 c 1.443,0.753 3.027,1.194 4.651,1.298 v 0 l 43.149,2.759 19.59,11.094 c 4.689,2.655 10.162,3.577 15.461,2.605 v 0 l 2.751,-0.504 c 1.656,-0.303 2.072,-2.487 0.643,-3.377 v 0 l -37.111,-22.688 -10.506,-14.88 c -1.488,-2.107 -3.632,-3.663 -6.097,-4.424 v 0 l -6.103,-1.884 4.17,10.096 -24.005,-11.149 c -3.447,-1.898 -7.097,-3.402 -10.881,-4.482 v 0 c -1.557,-0.445 -2.801,1.326 -1.852,2.64 v 0 l 4.634,6.424 -7.443,3.02 7.606,4.832 8.744,-0.503 z"
                 style="fill:url(#linearGradient1420);stroke:none"
                 id="path1396" />
            </g>
          </g>
        </g>
      </g>
      <text
         style="font-style:normal;font-variant:normal;font-weight:bold;font-stretch:normal;font-size:76.8008px;font-family:'Segoe UI';-inkscape-font-specification:'Segoe UI Bold';writing-mode:lr-tb;fill:#7519ff;fill-opacity:1;fill-rule:nonzero;stroke:none;stroke-width:3.31051"
         id="text1394"
         x="356.59586"
         y="-109.54169"
         transform="scale(1,-1)"><tspan
           sodipodi:role="line"
           id="tspan1392"
           x="356.59586"
           y="-109.54169"
           style="font-style:normal;font-variant:normal;font-weight:bold;font-stretch:normal;font-family:'Segoe UI';-inkscape-font-specification:'Segoe UI Bold';text-align:center;text-anchor:middle;stroke-width:3.31051">HABECK</tspan></text>
      <text
         transform="scale(1,-1)"
         style="font-variant:normal;font-weight:600;font-stretch:normal;font-size:25.6639px;font-family:'Montserrat SemiBold';-inkscape-font-specification:Montserrat-SemiBold;writing-mode:lr-tb;fill:#1b1b1b;fill-opacity:1;fill-rule:nonzero;stroke:none;stroke-width:3.20798"
         id="text1416"
         x="505.00656"
         y="-84.580742"><tspan
           sodipodi:role="line"
           id="tspan1414"
           x="505.00656"
           y="-84.580742"
           style="font-style:normal;font-variant:normal;font-weight:bold;font-stretch:normal;font-family:'Segoe UI';-inkscape-font-specification:'Segoe UI Bold';text-align:end;text-anchor:end;stroke-width:3.20798">T U R I S M O</tspan></text>
    </g>
  </g>
</svg>
